<svg enable-background="new 0 0 512 512" height="512" viewBox="0 0 512 512" width="512" xmlns="http://www.w3.org/2000/svg"><g id="_x38_0_x2C__ring_x2C__wedding_x2C__heart__x2C__love_and_romance_x2C__miscellaneous_x2C__valentines_day_x2C__valentine"><g id="XMLID_21487_"><g id="XMLID_21519_"><g id="XMLID_21544_"><path id="XMLID_21545_" d="m338.663 97.276c-18.102-18.102-9.288-46.851 13.695-51.125 4.104-22.075 32.41-32.411 51.125-13.694 14.662 14.664 10.235 36.196 8.611 60.434-.221 3.364-1.661 6.543-4.055 8.937-2.396 2.394-5.571 3.835-8.942 4.06-24.356 1.628-45.837 5.987-60.434-8.612zm9.733-22.219c.121 2.998 1.547 6.009 4.012 8.474 6.957 6.957 21.025 4.774 40.63 3.301 1.53-20.421 3.521-33.812-3.301-40.63-8.187-8.189-20.02-3.01-18.259 7.933 1.047 6.529-4.6 12.183-11.135 11.137-1.278-.205-12.175 4.168-11.947 9.785z"/></g><g id="XMLID_21540_"><path id="XMLID_21541_" d="m444.331 158.49c-7.659-.612-11.526-.152-15.631-4.256-2.175-2.174-3.488-5.064-3.692-8.135-1.104-16.466-4.577-33.276 6.896-44.749 13.57-13.568 35.628-8.254 40.411 9.269 3.798 1.036 7.221 3.018 10.032 5.829 14.157 14.158 5.964 40.236-19.048 42.578-5.91.554-12.662-.032-18.968-.536zm-.358-19.528c6.023.476 12.995 1.135 17.514.71 3.856-.361 5.375-1.409 6.353-2.386 3.722-3.722 1.93-8.772-3.087-7.967-6.534 1.053-12.183-4.61-11.137-11.134.804-5.027-4.244-6.812-7.965-3.09-.978.978-2.025 2.497-2.387 6.351-.408 4.359.188 10.965.578 15.854.042.539.086 1.093.131 1.662z"/></g><g id="XMLID_21538_"><path id="XMLID_21539_" d="m152.628 196.2c-22.638-19.291-47.2-38.512-47.2-67.497 0-41.522 44.611-61.583 72.817-37.07 28.242-24.561 72.816-4.423 72.816 37.07 0 29.146-24.645 48.277-47.57 67.814l-6.379-7.334-6.235-7.457c22.965-19.571 40.746-34.015 40.746-53.024 0-27.298-30.067-38.35-45.504-17.014-3.879 5.362-11.872 5.363-15.75-.001-15.485-21.41-45.503-10.229-45.503 17.015 0 8.395 3.171 15.965 10.281 24.544 7.264 8.764 20.531 20.172 30.527 28.532 4.081 3.487 4.572 9.629 1.085 13.71-3.305 3.872-9.383 4.893-14.131.712z"/></g><g id="XMLID_21536_"><path id="XMLID_21537_" d="m178.246 489.269c-85.748 0-155.509-69.761-155.509-155.509s69.761-155.509 155.509-155.509c29.467 0 58.15 8.283 82.947 23.955 4.537 2.867 5.891 8.871 3.023 13.408-2.866 4.538-8.871 5.892-13.408 3.024-21.685-13.704-46.777-20.948-72.562-20.948-75.029 0-136.07 61.041-136.07 136.07s61.041 136.07 136.07 136.07c25.785 0 50.877-7.244 72.562-20.948 12.641-7.98 23.809-17.911 33.197-29.522 40.315-49.709 40.461-121.311.009-171.189-3.381-4.169-2.743-10.289 1.427-13.671 4.169-3.381 10.289-2.743 13.671 1.426 22.34 27.545 34.643 62.29 34.643 97.834s-12.303 70.288-34.643 97.834c-10.721 13.259-23.483 24.609-37.923 33.723-24.794 15.669-53.477 23.952-82.943 23.952z"/></g><g id="XMLID_21534_"><path id="XMLID_21535_" d="m178.246 444.414c-61.015 0-110.654-49.639-110.654-110.654 0-80.562 83.867-134.216 156.916-100.538 4.874 2.248 7.004 8.021 4.757 12.896-2.248 4.874-8.02 7.003-12.896 4.757-60.161-27.737-129.339 16.44-129.339 82.885 0 50.296 40.919 91.215 91.216 91.215 27.701 0 53.184-12.43 70.268-33.063 27.983-33.748 27.848-82.72.004-116.3-3.426-4.132-2.854-10.259 1.278-13.686 4.132-3.424 10.258-2.854 13.686 1.279 16.391 19.767 25.417 44.824 25.417 70.555s-9.026 50.788-25.417 70.555c-10.539 12.727-24.02 23.098-38.981 29.986-14.555 6.71-30.119 10.113-46.255 10.113z"/></g><g id="XMLID_21532_"><path id="XMLID_21533_" d="m246.281 71.339c-8.588 0-13.007-10.457-6.873-16.592l19.439-19.439c3.797-3.795 9.949-3.795 13.746 0 3.796 3.796 3.796 9.95 0 13.746l-19.439 19.439c-1.898 1.897-4.386 2.846-6.873 2.846z"/></g><g id="XMLID_21530_"><path id="XMLID_21531_" d="m294.877 110.216h-19.439c-5.367 0-9.719-4.351-9.719-9.719s4.352-9.719 9.719-9.719h19.439c5.367 0 9.719 4.351 9.719 9.719s-4.351 9.719-9.719 9.719z"/></g><g id="XMLID_21528_"><path id="XMLID_21529_" d="m103.338 68.493-19.439-19.439c-3.795-3.796-3.795-9.95 0-13.746 3.796-3.795 9.95-3.795 13.746 0l19.439 19.439c3.795 3.796 3.795 9.95 0 13.746-3.797 3.795-9.951 3.795-13.746 0z"/></g><g id="XMLID_21526_"><path id="XMLID_21527_" d="m81.052 110.216h-15.758c-5.368 0-9.719-4.351-9.719-9.719s4.351-9.719 9.719-9.719h15.758c5.368 0 9.719 4.351 9.719 9.719s-4.351 9.719-9.719 9.719z"/></g><g id="XMLID_21524_"><path id="XMLID_21525_" d="m178.246 61.62c-5.368 0-9.719-4.351-9.719-9.719v-19.439c0-5.368 4.351-9.719 9.719-9.719s9.719 4.351 9.719 9.719v19.439c0 5.368-4.352 9.719-9.719 9.719z"/></g><g id="XMLID_21522_"><path id="XMLID_21523_" d="m333.754 444.414c-16.137 0-31.701-3.404-46.261-10.116-4.875-2.247-7.005-8.02-4.757-12.895 2.247-4.876 8.023-7.003 12.895-4.757 11.99 5.527 24.816 8.33 38.123 8.33 50.296 0 91.215-40.919 91.215-91.215s-40.919-91.216-91.215-91.216c-50.528 0-91.216 41.028-91.216 91.216 0 21.209 7.438 41.859 20.943 58.148 3.426 4.132 2.854 10.259-1.279 13.686-4.133 3.425-10.259 2.855-13.685-1.279-16.391-19.768-25.418-44.825-25.418-70.555 0-60.811 49.305-110.654 110.654-110.654 61.015 0 110.654 49.639 110.654 110.654s-49.637 110.653-110.653 110.653z"/></g><g id="XMLID_21520_"><path id="XMLID_21521_" d="m333.754 489.269c-29.466 0-58.149-8.283-82.947-23.955-4.537-2.867-5.891-8.871-3.024-13.408 2.868-4.538 8.871-5.89 13.408-3.024 21.686 13.704 46.778 20.948 72.563 20.948 75.029 0 136.07-61.041 136.07-136.07s-61.041-136.07-136.07-136.07c-25.785 0-50.876 7.244-72.562 20.949-69.027 43.564-84.343 137.657-33.207 200.711 3.381 4.169 2.743 10.29-1.427 13.671-4.169 3.382-10.29 2.743-13.671-1.427-58.768-72.46-40.563-179.851 37.924-229.391 24.793-15.669 53.476-23.952 82.942-23.952 85.748 0 155.509 69.761 155.509 155.509.001 85.749-69.759 155.509-155.508 155.509z"/></g></g></g></g></svg>