<?xml version="1.0" encoding="iso-8859-1"?>
<!-- Generator: Adobe Illustrator 19.0.0, SVG Export Plug-In . SVG Version: 6.00 Build 0)  -->
<svg version="1.1" id="Capa_1" xmlns="http://www.w3.org/2000/svg" xmlns:xlink="http://www.w3.org/1999/xlink" x="0px" y="0px"
	 viewBox="0 0 480 480" style="enable-background:new 0 0 480 480;" xml:space="preserve">
<g>
	<g>
		<path d="M112,176H64c-4.418,0-8,3.582-8,8v48c0,4.418,3.582,8,8,8h48c4.418,0,8-3.582,8-8v-48C120,179.582,116.418,176,112,176z
			 M104,224H72v-32h32V224z"/>
	</g>
</g>
<g>
	<g>
		<path d="M216,176h-48c-4.418,0-8,3.582-8,8v48c0,4.418,3.582,8,8,8h48c4.418,0,8-3.582,8-8v-48C224,179.582,220.418,176,216,176z
			 M208,224h-32v-32h32V224z"/>
	</g>
</g>
<g>
	<g>
		<path d="M320,176h-48c-4.418,0-8,3.582-8,8v48c0,4.418,3.582,8,8,8h48c4.418,0,8-3.582,8-8v-48C328,179.582,324.418,176,320,176z
			 M312,224h-32v-32h32V224z"/>
	</g>
</g>
<g>
	<g>
		<path d="M424,176h-48c-4.418,0-8,3.582-8,8v48c0,4.418,3.582,8,8,8h48c4.418,0,8-3.582,8-8v-48C432,179.582,428.418,176,424,176z
			 M416,224h-32v-32h32V224z"/>
	</g>
</g>
<g>
	<g>
		<path d="M112,272H64c-4.418,0-8,3.582-8,8v48c0,4.418,3.582,8,8,8h48c4.418,0,8-3.582,8-8v-48C120,275.582,116.418,272,112,272z
			 M104,320H72v-32h32V320z"/>
	</g>
</g>
<g>
	<g>
		<path d="M320,272h-48c-4.418,0-8,3.582-8,8v48c0,4.418,3.582,8,8,8h48c4.418,0,8-3.582,8-8v-48C328,275.582,324.418,272,320,272z
			 M312,320h-32v-32h32V320z"/>
	</g>
</g>
<g>
	<g>
		<path d="M424,272h-48c-4.418,0-8,3.582-8,8v48c0,4.418,3.582,8,8,8h48c4.418,0,8-3.582,8-8v-48C432,275.582,428.418,272,424,272z
			 M416,320h-32v-32h32V320z"/>
	</g>
</g>
<g>
	<g>
		<path d="M112,368H64c-4.418,0-8,3.582-8,8v48c0,4.418,3.582,8,8,8h48c4.418,0,8-3.582,8-8v-48C120,371.582,116.418,368,112,368z
			 M104,416H72v-32h32V416z"/>
	</g>
</g>
<g>
	<g>
		<path d="M216,368h-48c-4.418,0-8,3.582-8,8v48c0,4.418,3.582,8,8,8h48c4.418,0,8-3.582,8-8v-48C224,371.582,220.418,368,216,368z
			 M208,416h-32v-32h32V416z"/>
	</g>
</g>
<g>
	<g>
		<path d="M320,368h-48c-4.418,0-8,3.582-8,8v48c0,4.418,3.582,8,8,8h48c4.418,0,8-3.582,8-8v-48C328,371.582,324.418,368,320,368z
			 M312,416h-32v-32h32V416z"/>
	</g>
</g>
<g>
	<g>
		<path d="M424,368h-48c-4.418,0-8,3.582-8,8v48c0,4.418,3.582,8,8,8h48c4.418,0,8-3.582,8-8v-48C432,371.582,428.418,368,424,368z
			 M416,416h-32v-32h32V416z"/>
	</g>
</g>
<g>
	<g>
		<path d="M239.978,268.418c-0.88-0.997-1.821-1.938-2.818-2.818c-12.57-11.029-30.829-12.665-45.16-4.048
			c-14.321-8.63-32.579-7.013-45.16,4c-13.275,11.727-14.529,31.995-2.802,45.27c0.875,0.991,1.811,1.927,2.802,2.802l39.768,36.288
			c3.055,2.787,7.729,2.787,10.784,0l39.768-36.248C250.432,301.948,251.694,281.69,239.978,268.418z M228.119,300.065
			c-0.542,0.634-1.133,1.225-1.767,1.767L192,333.176l-34.4-31.336c-6.745-5.771-7.534-15.916-1.763-22.661
			c0.541-0.633,1.131-1.222,1.763-1.763c8.288-7.285,20.696-7.285,28.984,0c3.055,2.787,7.729,2.787,10.784,0
			c8.288-7.285,20.696-7.285,28.984,0C233.094,283.182,233.885,293.323,228.119,300.065z"/>
	</g>
</g>
<g>
	<g>
		<path d="M472,40h-80V8c0-4.418-3.582-8-8-8h-32c-4.418,0-8,3.582-8,8v32h-80V8c0-4.418-3.582-8-8-8h-32c-4.418,0-8,3.582-8,8v32
			h-80V8c0-4.418-3.582-8-8-8H96c-4.418,0-8,3.582-8,8v32H8c-4.418,0-8,3.582-8,8v424c0,4.418,3.582,8,8,8h464c4.418,0,8-3.582,8-8
			V48C480,43.582,476.418,40,472,40z M360,16h16v56h-16V16z M232,16h16v56h-16V16z M104,16h16v56h-16V16z M464,464H16V128h448V464z
			 M464,112H16V56h72v24c0,4.418,3.582,8,8,8h32c4.418,0,8-3.582,8-8V56h80v24c0,4.418,3.582,8,8,8h32c4.418,0,8-3.582,8-8V56h80v24
			c0,4.418,3.582,8,8,8h32c4.418,0,8-3.582,8-8V56h72V112z"/>
	</g>
</g>
<g>
</g>
<g>
</g>
<g>
</g>
<g>
</g>
<g>
</g>
<g>
</g>
<g>
</g>
<g>
</g>
<g>
</g>
<g>
</g>
<g>
</g>
<g>
</g>
<g>
</g>
<g>
</g>
<g>
</g>
</svg>
