<svg xmlns="http://www.w3.org/2000/svg" xmlns:xlink="http://www.w3.org/1999/xlink" width="75" zoomAndPan="magnify" viewBox="0 0 56.879997 62.249996" height="83" preserveAspectRatio="xMidYMid meet" version="1.0"><defs><clipPath id="84454c1125"><path d="M 29 8 L 55 8 L 55 60.769531 L 29 60.769531 Z M 29 8 " clip-rule="nonzero"/></clipPath><clipPath id="8bb355db31"><path d="M 1.304688 7 L 28 7 L 28 60.769531 L 1.304688 60.769531 Z M 1.304688 7 " clip-rule="nonzero"/></clipPath></defs><path fill="#000000" d="M 27.417969 0.746094 L 27.417969 4.554688 C 27.417969 5 27.71875 5.300781 28.167969 5.300781 C 28.539062 5.300781 28.914062 5 28.914062 4.554688 L 28.988281 0.746094 C 28.988281 0.296875 28.691406 0 28.242188 0 C 27.792969 0 27.492188 0.375 27.417969 0.746094 Z M 27.417969 0.746094 " fill-opacity="1" fill-rule="nonzero"/><path fill="#000000" d="M 32.878906 3.359375 L 30.109375 5.972656 C 29.8125 6.269531 29.8125 6.71875 30.109375 7.015625 C 30.261719 7.167969 30.484375 7.242188 30.632812 7.242188 C 30.785156 7.242188 31.007812 7.167969 31.15625 7.015625 L 33.925781 4.40625 C 34.222656 4.105469 34.222656 3.65625 33.925781 3.359375 C 33.699219 3.136719 33.175781 3.136719 32.878906 3.359375 Z M 32.878906 3.359375 " fill-opacity="1" fill-rule="nonzero"/><path fill="#000000" d="M 22.40625 3.433594 C 22.109375 3.734375 22.109375 4.179688 22.40625 4.480469 L 25.175781 7.09375 C 25.324219 7.242188 25.472656 7.316406 25.699219 7.316406 C 25.921875 7.316406 26.070312 7.242188 26.222656 7.09375 C 26.519531 6.792969 26.519531 6.34375 26.222656 6.046875 L 23.453125 3.433594 C 23.15625 3.136719 22.632812 3.136719 22.40625 3.433594 Z M 22.40625 3.433594 " fill-opacity="1" fill-rule="nonzero"/><g clip-path="url(#84454c1125)"><path fill="#000000" d="M 54.042969 56.660156 L 49.332031 57.78125 L 45.21875 40.984375 C 49.40625 39.117188 50.828125 30.683594 48.433594 21.125 C 47.6875 18.214844 45.589844 11.125 44.320312 8.4375 C 44.171875 8.136719 43.796875 7.988281 43.496094 8.0625 L 30.035156 11.347656 C 29.660156 11.421875 29.4375 11.71875 29.4375 12.09375 C 29.511719 15.078125 30.933594 22.320312 31.679688 25.234375 C 34 34.640625 39.011719 41.359375 43.496094 41.359375 C 43.574219 41.359375 43.648438 41.359375 43.796875 41.359375 L 47.910156 58.15625 L 43.199219 59.273438 C 42.824219 59.347656 42.527344 59.796875 42.675781 60.171875 C 42.75 60.542969 43.050781 60.769531 43.421875 60.769531 C 43.496094 60.769531 43.574219 60.769531 43.574219 60.769531 L 54.417969 58.15625 C 54.789062 58.082031 55.089844 57.632812 54.941406 57.257812 C 54.867188 56.8125 54.417969 56.585938 54.042969 56.660156 Z M 43.199219 9.554688 C 43.722656 10.75 44.320312 12.46875 44.917969 14.257812 L 31.605469 17.394531 C 31.308594 15.527344 31.007812 13.8125 30.933594 12.542969 Z M 33.101562 24.785156 C 32.804688 23.441406 32.28125 21.203125 31.832031 18.886719 L 45.292969 15.675781 C 45.964844 17.917969 46.5625 20.082031 46.863281 21.351562 C 49.105469 30.382812 47.761719 38.746094 44.019531 39.640625 C 40.355469 40.6875 35.347656 33.816406 33.101562 24.785156 Z M 33.101562 24.785156 " fill-opacity="1" fill-rule="nonzero"/></g><path fill="#000000" d="M 44.992188 35.011719 C 45.816406 33.070312 46.117188 27.25 44.394531 20.230469 C 44.320312 19.859375 43.871094 19.558594 43.496094 19.707031 C 43.125 19.78125 42.824219 20.230469 42.972656 20.605469 C 44.621094 27.175781 44.320312 32.773438 43.648438 34.414062 C 43.496094 34.789062 43.648438 35.238281 44.019531 35.386719 C 44.097656 35.460938 44.246094 35.460938 44.320312 35.460938 C 44.621094 35.535156 44.84375 35.3125 44.992188 35.011719 Z M 44.992188 35.011719 " fill-opacity="1" fill-rule="nonzero"/><g clip-path="url(#8bb355db31)"><path fill="#000000" d="M 27.195312 12.019531 C 27.195312 11.644531 26.96875 11.347656 26.59375 11.273438 L 13.132812 7.988281 C 12.757812 7.914062 12.460938 8.0625 12.3125 8.359375 C 11.039062 11.046875 8.945312 18.140625 8.199219 21.050781 C 7 25.753906 6.777344 30.457031 7.449219 34.191406 C 8.046875 37.699219 9.46875 40.089844 11.488281 40.984375 L 7.375 57.855469 L 2.589844 56.660156 C 2.214844 56.585938 1.765625 56.8125 1.691406 57.183594 C 1.617188 57.558594 1.839844 58.003906 2.214844 58.082031 L 13.058594 60.691406 C 13.132812 60.691406 13.207031 60.691406 13.207031 60.691406 C 13.582031 60.691406 13.882812 60.46875 13.957031 60.097656 C 14.03125 59.722656 13.804688 59.273438 13.433594 59.199219 L 8.796875 58.15625 L 12.910156 41.285156 C 12.984375 41.285156 13.132812 41.285156 13.207031 41.285156 C 15.300781 41.285156 17.546875 39.863281 19.566406 37.101562 C 21.882812 34.117188 23.753906 29.863281 24.949219 25.082031 C 25.699219 22.246094 27.117188 15.003906 27.195312 12.019531 Z M 13.433594 9.554688 L 25.699219 12.542969 C 25.625 13.8125 25.324219 15.601562 25.023438 17.394531 L 11.710938 14.257812 C 12.3125 12.46875 12.910156 10.75 13.433594 9.554688 Z M 18.367188 36.28125 C 16.347656 38.894531 14.179688 40.164062 12.460938 39.789062 C 10.742188 39.34375 9.46875 37.253906 8.871094 33.96875 C 8.273438 30.457031 8.496094 25.980469 9.617188 21.425781 C 9.917969 20.082031 10.515625 17.917969 11.1875 15.75 L 24.652344 18.960938 C 24.203125 21.277344 23.753906 23.515625 23.378906 24.859375 C 22.40625 29.339844 20.613281 33.445312 18.367188 36.28125 Z M 18.367188 36.28125 " fill-opacity="1" fill-rule="nonzero"/></g><path fill="#000000" d="M 13.132812 19.707031 C 12.757812 19.632812 12.3125 19.859375 12.234375 20.230469 C 10.515625 27.25 10.890625 33.070312 11.636719 35.011719 C 11.789062 35.3125 12.011719 35.460938 12.3125 35.460938 C 12.386719 35.460938 12.535156 35.460938 12.609375 35.386719 C 12.984375 35.238281 13.207031 34.789062 12.984375 34.414062 C 12.3125 32.699219 12.011719 27.175781 13.65625 20.605469 C 13.804688 20.230469 13.582031 19.859375 13.132812 19.707031 Z M 13.132812 19.707031 " fill-opacity="1" fill-rule="nonzero"/><path fill="#000000" d="M 32.128906 39.863281 C 30.632812 39.269531 29.0625 39.714844 27.867188 40.984375 C 26.746094 39.714844 25.175781 39.269531 23.605469 39.863281 C 21.808594 40.535156 20.3125 42.703125 20.910156 45.539062 C 21.882812 50.167969 27.269531 52.554688 27.492188 52.628906 C 27.566406 52.707031 27.71875 52.707031 27.792969 52.707031 C 27.867188 52.707031 28.015625 52.707031 28.089844 52.628906 C 28.316406 52.554688 33.699219 50.167969 34.671875 45.539062 C 35.421875 42.703125 33.925781 40.535156 32.128906 39.863281 Z M 33.328125 45.164062 C 32.578125 48.449219 28.988281 50.539062 27.867188 51.0625 C 26.820312 50.539062 23.15625 48.449219 22.40625 45.164062 C 21.957031 43.074219 23.003906 41.65625 24.203125 41.207031 C 24.5 41.132812 24.726562 41.058594 25.023438 41.058594 C 25.847656 41.058594 26.671875 41.582031 27.269531 42.550781 C 27.566406 43 28.316406 43 28.539062 42.550781 C 29.289062 41.285156 30.410156 40.761719 31.605469 41.207031 C 32.726562 41.65625 33.773438 43.074219 33.328125 45.164062 Z M 33.328125 45.164062 " fill-opacity="1" fill-rule="nonzero"/></svg>