<?xml version="1.0" encoding="UTF-8"?>
<svg xmlns="http://www.w3.org/2000/svg" viewBox="0 0 64 64" width="512" height="512"><g id="Ikon"><path d="M61.39,24.42a2.9275,2.9275,0,0,0-1.01-.87L53,19.73V9a3.0088,3.0088,0,0,0-3-3H14a3.0088,3.0088,0,0,0-3,3V19.73L3.62,23.55A3.0225,3.0225,0,0,0,2,26.22V55a3.0088,3.0088,0,0,0,3,3H59a3.0088,3.0088,0,0,0,3-3V26.22A2.9,2.9,0,0,0,61.39,24.42ZM6.2,56,29.08,39.36a4.9894,4.9894,0,0,1,5.8584-.0166L58.1123,56ZM4,55V26.9094L23.92,40.64l0,0L4.0225,55.1109A.9429.9429,0,0,1,4,55ZM40.1287,40.6108,40.13,40.61,60,26.9278v27.966Zm19.1942-15.35L53,29.56V21.99ZM13,9a1.0029,1.0029,0,0,1,1-1H50a1.0029,1.0029,0,0,1,1,1V30.68L38.4012,39.3691,36.1064,37.72a6.9842,6.9842,0,0,0-8.2021.0235l-2.2694,1.65L25.63,39.39,13,30.69V9ZM11,21.99v7.5518L4.6911,25.2526Zm19.2959,9.366a2.4664,2.4664,0,0,0,3.3672.0048c3.3-3.0854,8.8349-8.8608,8.84-12.873.0039-2.9141-1.5361-5.416-3.834-6.2256-2.1484-.7578-4.5312.085-6.665,2.3135-2.1269-2.2354-4.5127-3.082-6.6592-2.3325-2.3.8032-3.8476,3.3-3.8515,6.2143C21.4873,22.4692,27.0059,28.2607,30.2959,31.356Zm-4.291-17.2247c1.9426-.5368,3.47.5266,5.2148,2.5884a1.0076,1.0076,0,0,0,1.5625.0025c1.7539-2.1866,3.6563-3.1255,5.2217-2.5738,1.4746.52,2.502,2.3028,2.499,4.3365-.0039,2.7612-4.2412,7.707-8.205,11.415a.4551.4551,0,0,1-.6309-.001c-3.9541-3.72-8.1777-8.6777-8.1738-11.4385C23.4961,16.4268,24.5283,14.647,26.0049,14.1313Z"/></g></svg>
