<svg xmlns="http://www.w3.org/2000/svg" xmlns:xlink="http://www.w3.org/1999/xlink" width="264" zoomAndPan="magnify" viewBox="0 0 198.75 31.5" height="41" preserveAspectRatio="xMidYMid meet" version="1.0"><defs><clipPath id="dbc2ebe11d"><path d="M 10.347656 3.070312 L 103 3.070312 L 103 28.171875 L 10.347656 28.171875 Z M 10.347656 3.070312 " clip-rule="nonzero"/></clipPath><clipPath id="4bcfda4f04"><path d="M 100 3.070312 L 187.535156 3.070312 L 187.535156 28.171875 L 100 28.171875 Z M 100 3.070312 " clip-rule="nonzero"/></clipPath></defs><path fill="#000000" d="M 93.082031 13.765625 C 93.058594 13.742188 93.03125 13.722656 93.003906 13.703125 C 92.910156 13.648438 92.816406 13.644531 92.71875 13.6875 C 92.691406 13.695312 92.667969 13.707031 92.644531 13.730469 C 92.621094 13.742188 92.601562 13.761719 92.589844 13.785156 C 92.519531 13.867188 92.503906 13.960938 92.53125 14.066406 L 92.5625 14.140625 L 92.613281 14.207031 L 92.679688 14.257812 C 92.976562 14.441406 93.351562 14.015625 93.082031 13.765625 Z M 93.082031 13.765625 " fill-opacity="1" fill-rule="nonzero"/><path fill="#000000" d="M 85.730469 20.515625 C 85.855469 20.972656 86.535156 20.769531 86.414062 20.320312 C 86.320312 19.933594 85.703125 20.027344 85.722656 20.425781 C 85.71875 20.457031 85.722656 20.484375 85.730469 20.515625 Z M 86.320312 20.671875 Z M 86.320312 20.671875 " fill-opacity="1" fill-rule="nonzero"/><path fill="#000000" d="M 64.195312 17.132812 C 64.03125 17.035156 63.890625 17.0625 63.773438 17.214844 C 63.65625 17.367188 63.664062 17.507812 63.800781 17.644531 C 64.152344 17.976562 64.609375 17.386719 64.195312 17.132812 Z M 64.195312 17.132812 " fill-opacity="1" fill-rule="nonzero"/><path fill="#000000" d="M 52.75 19.519531 C 52.675781 19.480469 52.601562 19.472656 52.519531 19.496094 C 52.441406 19.515625 52.378906 19.5625 52.335938 19.636719 C 52.292969 19.707031 52.285156 19.78125 52.304688 19.863281 C 52.324219 19.945312 52.367188 20.007812 52.4375 20.050781 C 52.511719 20.089844 52.589844 20.097656 52.667969 20.078125 C 52.75 20.054688 52.8125 20.007812 52.851562 19.9375 C 52.894531 19.863281 52.90625 19.789062 52.886719 19.707031 C 52.867188 19.628906 52.820312 19.566406 52.75 19.519531 Z M 52.75 19.519531 " fill-opacity="1" fill-rule="nonzero"/><path fill="#000000" d="M 44.054688 8.042969 C 43.992188 7.9375 43.902344 7.886719 43.777344 7.890625 C 43.65625 7.894531 43.570312 7.949219 43.511719 8.058594 C 43.371094 8.289062 43.59375 8.640625 43.871094 8.5625 C 43.976562 8.523438 44.050781 8.453125 44.085938 8.34375 C 44.125 8.238281 44.113281 8.136719 44.054688 8.042969 Z M 44.054688 8.042969 " fill-opacity="1" fill-rule="nonzero"/><g clip-path="url(#dbc2ebe11d)"><path fill="#000000" d="M 10.355469 5.75 C 11.042969 10.507812 14.445312 12.214844 18.914062 12.523438 C 17.207031 13.054688 15.910156 14.355469 14.742188 15.648438 C 14.652344 15.742188 14.632812 15.851562 14.683594 15.972656 C 14.734375 16.09375 14.824219 16.15625 14.957031 16.160156 C 16.347656 16.207031 17.636719 15.867188 18.824219 15.144531 C 22.441406 12.71875 22.445312 12.082031 27.0625 11.160156 C 26.765625 11.570312 26.507812 12.0625 26.136719 12.40625 C 25.882812 12.570312 25.617188 12.714844 25.34375 12.84375 C 24.3125 13.390625 23.585938 14.273438 23.089844 15.3125 C 22.796875 15.972656 22.546875 16.644531 22.335938 17.332031 C 22.25 17.589844 22.546875 17.746094 22.753906 17.652344 C 25.449219 16.484375 26.375 13.566406 27.734375 11.234375 C 27.953125 11.074219 28.195312 10.96875 28.460938 10.914062 C 31.640625 10.410156 34.828125 10.402344 38.011719 10.894531 C 37.476562 11.039062 36.96875 11.25 36.488281 11.527344 C 34.222656 12.132812 32.902344 11.210938 30.886719 13.132812 C 30.511719 13.492188 30.167969 13.882812 29.855469 14.296875 C 29.707031 14.484375 29.910156 14.742188 30.113281 14.746094 C 33.414062 14.902344 34.949219 12.6875 37.699219 11.574219 C 38.378906 11.335938 39.078125 11.222656 39.800781 11.234375 C 43.660156 12.070312 47.230469 13.796875 50.726562 15.574219 C 49.859375 15.496094 49.007812 15.589844 48.179688 15.855469 C 47.402344 16.105469 46.703125 16.648438 45.84375 16.484375 C 44.851562 14.996094 43.238281 13.78125 41.386719 13.738281 C 41.011719 13.730469 40.640625 13.742188 40.265625 13.773438 C 40.214844 13.773438 40.167969 13.789062 40.128906 13.8125 C 40.085938 13.839844 40.050781 13.871094 40.027344 13.914062 C 40 13.957031 39.988281 14.003906 39.988281 14.054688 C 39.988281 14.105469 40 14.152344 40.023438 14.195312 C 40.492188 15.285156 41.300781 16.195312 42.460938 16.554688 C 41.574219 16.851562 40.839844 17.359375 40.25 18.082031 C 40.113281 18.25 40.128906 18.574219 40.394531 18.621094 C 41.273438 18.777344 42.152344 18.882812 43.035156 18.691406 C 45.515625 18.199219 47.503906 16.179688 50.089844 16.160156 C 50.898438 16.15625 51.691406 16.25 52.472656 16.445312 C 53.65625 17.035156 54.855469 17.59375 56.074219 18.105469 C 55.136719 18.300781 54.1875 18.5625 53.363281 19.058594 C 53.144531 19.207031 53.273438 19.601562 53.554688 19.507812 C 54.714844 18.980469 55.925781 18.664062 57.195312 18.5625 C 60.195312 19.730469 63.300781 20.4375 66.511719 20.679688 C 63.984375 21.390625 61.277344 21.101562 58.761719 21.898438 C 58.03125 22.109375 57.324219 22.378906 56.640625 22.710938 C 56.550781 22.761719 56.5 22.839844 56.484375 22.945312 C 56.472656 23.046875 56.5 23.132812 56.574219 23.207031 C 57.847656 24.289062 60 23.785156 61.425781 23.253906 C 61.5 23.230469 61.554688 23.1875 61.589844 23.125 C 61.625 23.058594 61.632812 22.992188 61.613281 22.917969 C 61.59375 22.847656 61.550781 22.792969 61.488281 22.757812 C 61.421875 22.71875 61.355469 22.710938 61.28125 22.730469 C 60.066406 23.058594 58.6875 23.429688 57.453125 23.015625 C 59.554688 22.070312 61.886719 21.925781 64.148438 21.71875 C 62.429688 22.652344 60.742188 24.027344 59.941406 25.859375 C 59.917969 25.933594 59.929688 26.003906 59.96875 26.070312 C 60.007812 26.140625 60.0625 26.183594 60.136719 26.203125 C 61.394531 26.53125 62.792969 25.949219 63.527344 24.910156 C 64.214844 23.8125 64.734375 22.566406 65.808594 21.765625 C 66.265625 21.351562 66.90625 21.21875 67.496094 21.082031 C 69.371094 20.640625 71.316406 20.8125 73.210938 20.515625 C 72.863281 20.925781 72.546875 21.363281 72.261719 21.816406 C 71.351562 22.484375 70.25 22.824219 69.382812 23.558594 C 68.042969 24.675781 67.144531 26.070312 66.6875 27.746094 C 66.671875 27.796875 66.671875 27.851562 66.6875 27.902344 C 66.699219 27.953125 66.726562 27.996094 66.765625 28.035156 C 66.800781 28.070312 66.847656 28.097656 66.898438 28.109375 C 66.949219 28.125 67 28.125 67.054688 28.113281 C 68.339844 27.832031 69.417969 27.023438 70.242188 26.023438 C 71.503906 24.507812 72.199219 22.621094 73.417969 21.078125 C 73.757812 20.6875 74.175781 20.425781 74.679688 20.292969 C 78.078125 19.71875 81.320312 18.519531 84.652344 17.679688 C 84.300781 17.933594 83.960938 18.210938 83.644531 18.511719 C 82.75 18.898438 81.773438 19.105469 80.859375 19.433594 C 79.9375 19.746094 79.117188 20.226562 78.398438 20.875 C 77.679688 21.523438 77.117188 22.289062 76.71875 23.167969 C 76.636719 23.3125 76.664062 23.4375 76.796875 23.539062 C 76.929688 23.640625 77.054688 23.636719 77.179688 23.519531 C 77.566406 23.199219 78.152344 23.140625 78.617188 22.980469 C 79.851562 22.574219 80.910156 21.898438 81.796875 20.957031 C 80.898438 22.660156 81 24.898438 79.523438 26.285156 C 79.4375 26.371094 79.421875 26.46875 79.464844 26.582031 C 79.511719 26.691406 79.597656 26.746094 79.714844 26.75 C 81.457031 26.582031 82.890625 25.195312 83.253906 23.515625 C 83.460938 22.761719 83.375 21.980469 83.460938 21.210938 C 83.585938 20.136719 84.023438 19.203125 84.773438 18.414062 C 85.902344 17.191406 87.605469 17.019531 89.167969 16.871094 C 88.050781 17.363281 87.214844 18.195312 86.5 19.175781 C 86.339844 19.398438 86.707031 19.683594 86.886719 19.472656 C 87.640625 18.566406 88.4375 17.71875 89.566406 17.285156 C 92.277344 16.320312 95.246094 16.992188 97.945312 17.6875 C 96.648438 18.167969 95.398438 18.757812 94.203125 19.457031 C 93.851562 19.664062 94.171875 20.207031 94.523438 20.003906 C 95.925781 19.183594 97.398438 18.515625 98.941406 17.996094 C 100.085938 18.378906 101.195312 18.847656 102.265625 19.402344 C 102.628906 19.589844 102.953125 19.042969 102.589844 18.855469 C 100.871094 17.976562 99.070312 17.308594 97.195312 16.851562 C 95.875 16.414062 94.59375 15.851562 93.640625 14.8125 C 93.464844 14.613281 93.097656 14.882812 93.265625 15.097656 C 93.6875 15.628906 94.195312 16.058594 94.789062 16.390625 C 94.539062 16.355469 94.289062 16.324219 94.039062 16.292969 C 92.222656 16.160156 90.089844 15.789062 89.167969 14.011719 C 88.949219 13.316406 89.425781 12.644531 89.710938 12.046875 C 90.019531 11.414062 90.128906 10.75 90.042969 10.050781 C 89.960938 9.355469 89.695312 8.734375 89.246094 8.195312 C 89.074219 7.984375 88.789062 8.136719 88.710938 8.335938 C 87.785156 10.386719 87.59375 12.667969 88.851562 14.628906 C 86.957031 13.460938 85.980469 11.855469 85.8125 9.648438 C 85.613281 7.757812 85.328125 5.414062 83.402344 4.484375 C 83.359375 4.460938 83.316406 4.449219 83.265625 4.449219 C 83.21875 4.449219 83.171875 4.464844 83.128906 4.488281 C 83.085938 4.511719 83.054688 4.542969 83.027344 4.585938 C 83.003906 4.628906 82.988281 4.671875 82.988281 4.722656 C 82.8125 7.089844 83.628906 9.523438 84.976562 11.464844 C 83.734375 10.851562 82.253906 10.9375 80.976562 11.40625 C 80.355469 11.621094 79.78125 11.921875 79.253906 12.3125 C 79.003906 12.507812 79.320312 12.855469 79.574219 12.730469 C 82.054688 12.480469 84.601562 12.875 86.835938 14 C 87.0625 14.113281 87.28125 14.246094 87.507812 14.363281 C 88.417969 15.132812 89.429688 15.730469 90.546875 16.15625 C 86.605469 16.246094 82.839844 17.535156 79.089844 18.609375 C 77.828125 18.855469 76.523438 19.074219 75.347656 18.414062 C 71.839844 16.207031 75.339844 13.265625 71.867188 9.800781 C 71.828125 9.761719 71.78125 9.738281 71.730469 9.722656 C 71.675781 9.710938 71.625 9.710938 71.570312 9.722656 C 71.519531 9.738281 71.472656 9.761719 71.433594 9.800781 C 71.394531 9.839844 71.367188 9.882812 71.351562 9.9375 C 71.160156 10.820312 71.097656 11.714844 71.164062 12.617188 C 71.261719 13.476562 71.527344 14.28125 71.964844 15.03125 C 70.027344 14.421875 68.488281 14.558594 67.890625 12.210938 C 68.859375 12.347656 69.667969 12.929688 70.402344 13.535156 C 70.695312 13.761719 71.082031 13.402344 70.820312 13.121094 C 69.976562 12.222656 68.707031 11.5625 67.464844 11.542969 C 67.359375 11.546875 67.277344 11.585938 67.214844 11.667969 C 67.152344 11.75 67.136719 11.839844 67.160156 11.9375 C 68.066406 15.136719 69.339844 14.796875 72.050781 15.636719 C 72.65625 16.054688 73.152344 16.707031 73.523438 17.34375 C 72.875 17.085938 72.203125 16.917969 71.503906 16.847656 C 70.359375 16.625 69.414062 15.933594 68.386719 15.398438 C 67.246094 14.808594 65.90625 14.46875 64.621094 14.667969 C 64.535156 14.6875 64.472656 14.742188 64.441406 14.824219 C 64.410156 14.90625 64.417969 14.984375 64.46875 15.058594 C 64.679688 15.722656 65.070312 16.265625 65.628906 16.683594 C 67.597656 18.132812 70.15625 16.902344 72.351562 17.546875 C 73.171875 17.746094 73.925781 18.097656 74.609375 18.59375 C 75.113281 18.972656 75.679688 19.214844 76.300781 19.320312 C 74.484375 19.742188 72.644531 20.003906 70.785156 20.113281 C 69.363281 20.117188 67.816406 20.414062 66.527344 19.671875 C 65.886719 19.351562 65.386719 18.835938 64.953125 18.285156 C 64.765625 18.105469 64.367188 18.28125 64.480469 18.558594 C 64.765625 19.167969 65.34375 19.628906 65.890625 20 C 64.417969 19.859375 62.964844 19.613281 61.527344 19.261719 C 60.019531 18.636719 59.042969 16.96875 59.355469 15.355469 C 59.46875 14.714844 59.664062 14.078125 59.753906 13.433594 C 59.847656 12.566406 59.800781 11.707031 59.617188 10.855469 C 59.398438 9.890625 59.078125 8.960938 58.648438 8.066406 C 58.53125 7.8125 58.148438 7.902344 58.078125 8.140625 C 57.558594 9.683594 56.734375 11.523438 57.882812 12.992188 C 58.140625 13.355469 58.433594 13.695312 58.65625 14.078125 C 58.992188 14.699219 58.710938 15.460938 58.742188 16.140625 C 58.65625 16.082031 58.566406 16.027344 58.472656 15.980469 C 58.160156 15.652344 58.003906 15.1875 57.796875 14.789062 C 57.554688 14.3125 57.269531 13.859375 56.941406 13.433594 C 56.3125 12.625 55.480469 11.941406 54.46875 11.695312 C 54.367188 11.671875 54.277344 11.6875 54.199219 11.75 C 54.117188 11.8125 54.074219 11.894531 54.074219 11.996094 C 54.101562 12.992188 54.429688 13.878906 55.0625 14.652344 C 56.296875 16.289062 57.917969 15.875 58.882812 17.011719 C 59.078125 17.722656 59.445312 18.335938 59.976562 18.847656 C 59.167969 18.605469 58.367188 18.335938 57.574219 18.035156 C 57.523438 17.992188 57.46875 17.96875 57.402344 17.96875 C 53.433594 16.445312 49.746094 14.238281 45.835938 12.59375 C 44.773438 11.777344 44.171875 10.5 44.050781 9.1875 C 43.984375 8.953125 43.597656 8.925781 43.546875 9.1875 C 43.457031 9.769531 43.660156 10.382812 43.863281 10.925781 C 41.851562 8.605469 41.742188 5.003906 39.132812 3.164062 C 39.042969 3.117188 38.953125 3.109375 38.859375 3.148438 C 38.761719 3.1875 38.703125 3.253906 38.671875 3.351562 C 38.273438 4.78125 38.160156 6.433594 38.957031 7.757812 C 39.359375 8.421875 39.953125 8.925781 40.574219 9.375 C 41.695312 10.15625 42.828125 10.925781 43.863281 11.816406 C 40.929688 10.722656 37.765625 10.167969 34.636719 10.039062 C 31.1875 8.84375 31.992188 7.40625 30.335938 4.917969 C 29.925781 4.394531 29.460938 3.925781 28.933594 3.519531 C 28.765625 3.382812 28.441406 3.402344 28.394531 3.660156 C 28.082031 5.183594 28.53125 6.785156 29.925781 7.613281 C 28.609375 7.523438 26.765625 7.910156 26.128906 6.417969 C 26.644531 6.292969 27.164062 6.390625 27.675781 6.492188 C 27.84375 6.535156 27.964844 6.476562 28.035156 6.316406 C 28.207031 5.734375 27.121094 5.75 26.753906 5.722656 C 26.363281 5.757812 25.171875 5.726562 25.417969 6.359375 C 25.640625 6.882812 25.929688 7.375 26.410156 7.699219 C 27.886719 8.734375 30.332031 7.585938 31.582031 8.679688 C 32.003906 9.257812 32.542969 9.703125 33.191406 10.011719 C 31.796875 10.015625 30.410156 10.109375 29.027344 10.296875 C 26.726562 10.660156 24.324219 11.039062 22.039062 10.347656 C 21.390625 10.148438 20.769531 9.886719 20.175781 9.558594 C 20.035156 9.480469 19.925781 9.511719 19.84375 9.648438 C 19.765625 9.785156 19.792969 9.898438 19.925781 9.980469 C 21.246094 10.890625 22.941406 11.207031 24.515625 11.265625 C 23.820312 11.480469 23.109375 11.644531 22.398438 11.792969 C 20.523438 12.070312 18.601562 12.089844 16.746094 11.660156 C 15.722656 11.21875 15.066406 10.257812 14.523438 9.328125 C 13.929688 8.28125 13.261719 7.253906 12.332031 6.464844 C 12.058594 6.246094 10.457031 4.816406 10.382812 5.582031 C 10.355469 5.636719 10.34375 5.691406 10.355469 5.75 Z M 33.089844 13.585938 C 32.351562 13.914062 31.578125 14.101562 30.769531 14.144531 C 32.007812 12.675781 33.175781 12.300781 35.054688 12.382812 C 34.402344 12.792969 33.792969 13.261719 33.089844 13.585938 Z M 41.1875 15.082031 C 40.992188 14.847656 40.832031 14.59375 40.703125 14.316406 C 42.421875 14.183594 43.992188 15.042969 45.015625 16.378906 C 43.621094 16.277344 42.175781 16.234375 41.1875 15.082031 Z M 43.429688 17.941406 C 42.675781 18.199219 41.90625 18.25 41.121094 18.097656 C 42.402344 16.882812 43.863281 16.820312 45.535156 17.078125 C 44.855469 17.417969 44.152344 17.707031 43.429688 17.941406 Z M 83.519531 5.183594 C 85.433594 6.605469 85.007812 9.296875 85.585938 11.34375 C 84.222656 9.515625 83.535156 7.460938 83.519531 5.183594 Z M 84.792969 12.640625 C 83.488281 12.273438 82.15625 12.101562 80.800781 12.121094 C 82.539062 11.289062 84.738281 11.507812 86 13.050781 C 85.605469 12.894531 85.203125 12.757812 84.792969 12.640625 Z M 81.257812 20.644531 C 80.292969 21.660156 79.003906 22.304688 77.65625 22.65625 C 78.625 21.007812 80.378906 20.097656 82.175781 19.617188 C 81.855469 19.945312 81.578125 20.3125 81.257812 20.644531 Z M 82.980469 20.777344 C 82.902344 21.285156 82.863281 21.792969 82.863281 22.304688 C 82.828125 23.890625 82.027344 25.476562 80.480469 26.011719 C 81.8125 23.898438 81.53125 21.570312 83.335938 19.613281 C 83.175781 19.988281 83.058594 20.375 82.980469 20.777344 Z M 88.625 10.585938 C 88.730469 10.074219 88.886719 9.578125 89.085938 9.097656 C 89.832031 10.484375 89.214844 11.515625 88.675781 12.796875 C 88.492188 12.0625 88.476562 11.324219 88.625 10.582031 Z M 68.535156 16.886719 C 67.164062 17 65.691406 16.519531 65.085938 15.199219 C 66.808594 15.074219 68.273438 15.988281 69.707031 16.820312 C 69.316406 16.84375 68.925781 16.875 68.535156 16.886719 Z M 71.789062 12.6875 C 71.726562 12.019531 71.746094 11.351562 71.851562 10.6875 C 73.238281 12.21875 73.046875 13.730469 73.0625 15.628906 C 72.433594 14.765625 71.914062 13.75 71.789062 12.6875 Z M 68.773438 26.664062 C 68.367188 26.980469 67.921875 27.222656 67.4375 27.394531 C 68.152344 25.429688 69.582031 23.777344 71.558594 22.976562 C 70.789062 24.3125 70.015625 25.703125 68.773438 26.664062 Z M 64.234375 22.625 C 63.199219 24.117188 62.890625 25.832031 60.621094 25.707031 C 61.535156 24.105469 63.054688 22.890625 64.6875 22.070312 C 64.527344 22.246094 64.375 22.433594 64.234375 22.625 Z M 55.015625 13.4375 C 54.871094 13.117188 54.777344 12.785156 54.730469 12.441406 C 56.09375 13 56.863281 14.347656 57.519531 15.589844 C 56.964844 15.429688 56.46875 15.160156 56.03125 14.785156 C 55.59375 14.410156 55.253906 13.960938 55.015625 13.4375 Z M 58.234375 12.398438 C 57.597656 11.328125 58.054688 10.175781 58.4375 9.082031 C 59.0625 10.53125 59.421875 12.136719 59.148438 13.699219 C 58.878906 13.242188 58.503906 12.855469 58.234375 12.398438 Z M 39.722656 7.816406 C 38.859375 6.738281 38.859375 5.25 39.160156 3.96875 C 40.910156 5.570312 41.289062 8.074219 42.503906 10.03125 C 41.570312 9.300781 40.480469 8.746094 39.722656 7.816406 Z M 29.019531 5.539062 C 28.929688 5.128906 28.90625 4.714844 28.953125 4.300781 C 30.050781 5.132812 30.566406 6.40625 31.03125 7.652344 C 30.136719 7.191406 29.253906 6.582031 29.019531 5.539062 Z M 17.238281 15.269531 C 16.722656 15.4375 16.191406 15.53125 15.648438 15.558594 C 17.394531 13.589844 18.996094 12.890625 21.578125 12.554688 C 20.152344 13.5 18.882812 14.734375 17.238281 15.269531 Z M 23.953125 16.203125 C 23.691406 16.433594 23.410156 16.640625 23.109375 16.820312 C 23.644531 15.160156 24.507812 13.785156 26.164062 13.074219 C 25.605469 14.230469 24.917969 15.339844 23.953125 16.203125 Z M 13.066406 8.082031 C 13.8125 9.09375 14.289062 10.285156 15.167969 11.199219 C 12.765625 10.394531 11.453125 8.550781 10.953125 6.140625 C 11.785156 6.652344 12.488281 7.300781 13.066406 8.082031 Z M 13.066406 8.082031 " fill-opacity="1" fill-rule="nonzero"/></g><path fill="#000000" d="M 19.167969 8.855469 C 19.09375 8.816406 19.015625 8.808594 18.9375 8.832031 C 18.855469 8.851562 18.792969 8.898438 18.75 8.972656 C 18.707031 9.042969 18.695312 9.121094 18.71875 9.203125 C 18.738281 9.285156 18.785156 9.347656 18.855469 9.390625 C 18.929688 9.429688 19.007812 9.441406 19.085938 9.417969 C 19.167969 9.394531 19.230469 9.347656 19.273438 9.277344 C 19.316406 9.203125 19.328125 9.125 19.304688 9.046875 C 19.285156 8.964844 19.238281 8.902344 19.167969 8.855469 Z M 19.167969 8.855469 " fill-opacity="1" fill-rule="nonzero"/><path fill="#000000" d="M 104.800781 14.191406 C 104.824219 14.214844 104.851562 14.238281 104.878906 14.257812 C 104.972656 14.308594 105.066406 14.316406 105.164062 14.273438 C 105.21875 14.25 105.261719 14.21875 105.292969 14.171875 C 105.363281 14.089844 105.382812 13.996094 105.351562 13.894531 L 105.320312 13.816406 L 105.269531 13.753906 L 105.203125 13.703125 C 104.902344 13.519531 104.53125 13.9375 104.800781 14.191406 Z M 104.800781 14.191406 " fill-opacity="1" fill-rule="nonzero"/><path fill="#000000" d="M 112.164062 20.421875 C 112.171875 19.964844 111.449219 19.953125 111.457031 20.417969 C 111.460938 20.878906 112.160156 20.890625 112.164062 20.425781 Z M 111.5625 20.671875 Z M 111.5625 20.671875 " fill-opacity="1" fill-rule="nonzero"/><path fill="#000000" d="M 133.6875 17.695312 C 133.765625 17.742188 133.847656 17.753906 133.933594 17.730469 C 134.023438 17.707031 134.089844 17.65625 134.136719 17.578125 C 134.179688 17.5 134.191406 17.417969 134.167969 17.332031 C 134.144531 17.242188 134.097656 17.179688 134.019531 17.132812 C 133.941406 17.085938 133.855469 17.074219 133.769531 17.097656 C 133.683594 17.121094 133.613281 17.171875 133.570312 17.25 C 133.523438 17.328125 133.511719 17.410156 133.535156 17.496094 C 133.558594 17.585938 133.609375 17.652344 133.6875 17.695312 Z M 133.6875 17.695312 " fill-opacity="1" fill-rule="nonzero"/><path fill="#000000" d="M 145.445312 19.519531 C 145.371094 19.480469 145.292969 19.46875 145.210938 19.492188 C 145.128906 19.511719 145.066406 19.558594 145.023438 19.632812 C 144.980469 19.703125 144.972656 19.78125 144.992188 19.863281 C 145.011719 19.945312 145.058594 20.007812 145.132812 20.050781 C 145.207031 20.089844 145.285156 20.101562 145.367188 20.082031 C 145.449219 20.058594 145.507812 20.011719 145.550781 19.9375 C 145.59375 19.867188 145.605469 19.789062 145.585938 19.707031 C 145.5625 19.625 145.515625 19.5625 145.445312 19.519531 Z M 145.445312 19.519531 " fill-opacity="1" fill-rule="nonzero"/><path fill="#000000" d="M 153.804688 8.351562 C 153.828125 8.433594 153.875 8.492188 153.945312 8.53125 C 154.019531 8.570312 154.09375 8.582031 154.171875 8.5625 C 154.464844 8.480469 154.5 8.019531 154.210938 7.914062 C 153.957031 7.789062 153.671875 8.113281 153.804688 8.351562 Z M 153.804688 8.351562 " fill-opacity="1" fill-rule="nonzero"/><g clip-path="url(#4bcfda4f04)"><path fill="#000000" d="M 181.824219 11.253906 C 180.535156 12.257812 177.085938 12.027344 175.496094 11.792969 C 174.972656 11.691406 174.457031 11.554688 173.941406 11.441406 C 173.75 11.378906 173.5625 11.320312 173.371094 11.265625 C 174.941406 11.207031 176.636719 10.890625 177.957031 9.980469 C 178.09375 9.898438 178.121094 9.785156 178.039062 9.648438 C 177.957031 9.511719 177.847656 9.480469 177.707031 9.558594 C 177.113281 9.886719 176.492188 10.148438 175.84375 10.347656 C 172.167969 11.421875 168.4375 9.855469 164.714844 10 C 165.355469 9.691406 165.882812 9.25 166.304688 8.675781 C 167.558594 7.589844 170 8.734375 171.472656 7.699219 C 171.953125 7.375 172.242188 6.882812 172.464844 6.359375 C 172.714844 5.726562 171.515625 5.757812 171.128906 5.722656 C 170.765625 5.75 169.671875 5.738281 169.847656 6.316406 C 169.917969 6.476562 170.039062 6.535156 170.207031 6.492188 C 170.71875 6.390625 171.238281 6.292969 171.757812 6.417969 C 171.117188 7.910156 169.277344 7.523438 167.964844 7.613281 C 169.347656 6.777344 169.808594 5.183594 169.488281 3.660156 C 169.441406 3.402344 169.117188 3.382812 168.949219 3.519531 C 168.492188 3.875 168.074219 4.273438 167.703125 4.71875 C 165.90625 7.117188 166.792969 8.875 163.28125 10.023438 C 160.113281 10.144531 157.035156 10.730469 154.050781 11.785156 C 157.25 9.019531 160.585938 8.511719 159.207031 3.351562 C 159.179688 3.253906 159.121094 3.1875 159.023438 3.148438 C 158.929688 3.109375 158.839844 3.117188 158.75 3.164062 C 156.132812 4.992188 156.035156 8.617188 154.019531 10.925781 C 154.21875 10.386719 154.425781 9.769531 154.335938 9.1875 C 154.285156 8.929688 153.898438 8.953125 153.832031 9.1875 C 153.710938 10.480469 153.128906 11.738281 152.09375 12.550781 C 148.15625 14.199219 144.492188 16.429688 140.507812 17.96875 C 140.421875 17.960938 140.351562 17.988281 140.289062 18.050781 C 139.503906 18.347656 138.703125 18.621094 137.894531 18.855469 C 138.429688 18.339844 138.796875 17.726562 138.996094 17.015625 C 139.621094 16.191406 140.773438 16.1875 141.613281 15.683594 C 142.277344 15.300781 142.800781 14.777344 143.191406 14.121094 C 143.582031 13.464844 143.789062 12.757812 143.808594 11.996094 C 143.808594 11.894531 143.765625 11.8125 143.683594 11.75 C 143.605469 11.6875 143.515625 11.671875 143.414062 11.695312 C 141.855469 12.082031 140.789062 13.429688 140.085938 14.789062 C 139.882812 15.183594 139.726562 15.640625 139.421875 15.96875 C 139.324219 16.019531 139.230469 16.078125 139.136719 16.140625 C 139.066406 14.65625 138.820312 14.394531 139.871094 13.171875 C 141.183594 11.65625 140.359375 9.78125 139.804688 8.140625 C 139.734375 7.90625 139.351562 7.8125 139.234375 8.066406 C 138.507812 9.640625 137.96875 11.355469 138.097656 13.105469 C 138.136719 13.546875 138.207031 13.984375 138.316406 14.414062 C 138.980469 16.371094 138.332031 18.40625 136.355469 19.261719 C 134.921875 19.613281 133.464844 19.859375 131.992188 20 C 132.539062 19.628906 133.121094 19.167969 133.402344 18.558594 C 133.515625 18.285156 133.117188 18.105469 132.929688 18.285156 C 132.699219 18.542969 132.5 18.839844 132.226562 19.066406 C 131.613281 19.609375 130.90625 19.964844 130.105469 20.132812 C 127.222656 20.25 124.378906 19.980469 121.574219 19.324219 C 122.199219 19.21875 122.765625 18.972656 123.273438 18.59375 C 126.660156 16.148438 129.449219 18.367188 132.050781 16.828125 C 132.71875 16.398438 133.171875 15.808594 133.414062 15.058594 C 133.464844 14.984375 133.476562 14.90625 133.441406 14.824219 C 133.410156 14.742188 133.351562 14.691406 133.261719 14.671875 C 131.976562 14.46875 130.636719 14.808594 129.496094 15.402344 C 128.46875 15.933594 127.523438 16.625 126.375 16.847656 C 125.683594 16.921875 125.011719 17.085938 124.363281 17.347656 C 124.730469 16.707031 125.230469 16.054688 125.832031 15.636719 C 127.269531 15.097656 129.132812 15.167969 130 13.679688 C 130.335938 13.152344 130.535156 12.53125 130.722656 11.9375 C 130.75 11.839844 130.730469 11.75 130.667969 11.667969 C 130.605469 11.585938 130.523438 11.546875 130.421875 11.546875 C 129.175781 11.566406 127.90625 12.222656 127.0625 13.121094 C 126.800781 13.402344 127.191406 13.765625 127.480469 13.535156 C 128.214844 12.929688 129.023438 12.347656 129.992188 12.214844 C 129.394531 14.558594 127.855469 14.421875 125.921875 15.03125 C 126.46875 14.089844 126.746094 13.078125 126.746094 11.996094 C 126.742188 11.300781 126.671875 10.617188 126.53125 9.9375 C 126.515625 9.882812 126.488281 9.839844 126.449219 9.800781 C 126.410156 9.765625 126.367188 9.738281 126.3125 9.722656 C 126.261719 9.710938 126.207031 9.710938 126.15625 9.722656 C 126.101562 9.738281 126.054688 9.765625 126.019531 9.800781 C 122.609375 13.234375 125.882812 15.933594 122.804688 18.246094 C 121.40625 19.203125 119.585938 18.855469 118.066406 18.398438 C 114.574219 17.375 111.042969 16.253906 107.375 16.15625 C 108.472656 15.722656 109.46875 15.125 110.371094 14.367188 C 111.574219 13.683594 112.855469 13.203125 114.210938 12.925781 C 115.566406 12.644531 116.933594 12.582031 118.3125 12.730469 C 118.5625 12.855469 118.882812 12.511719 118.632812 12.316406 C 117.6875 11.613281 116.632812 11.199219 115.464844 11.0625 C 114.574219 10.949219 113.722656 11.082031 112.910156 11.460938 C 114.257812 9.507812 115.046875 7.101562 114.894531 4.722656 C 114.894531 4.671875 114.878906 4.628906 114.855469 4.585938 C 114.832031 4.546875 114.796875 4.511719 114.753906 4.488281 C 114.710938 4.464844 114.667969 4.453125 114.617188 4.453125 C 114.570312 4.449219 114.523438 4.460938 114.480469 4.484375 C 113.347656 5.007812 112.726562 6.183594 112.425781 7.332031 C 111.777344 10.574219 112.269531 12.574219 109.03125 14.625 C 110.285156 12.679688 110.085938 10.375 109.175781 8.335938 C 109.09375 8.140625 108.808594 7.988281 108.636719 8.195312 C 108.21875 8.699219 107.957031 9.273438 107.855469 9.921875 C 107.753906 10.566406 107.820312 11.195312 108.0625 11.800781 C 108.664062 13.097656 109.300781 13.8125 107.984375 14.953125 C 106.757812 16.105469 104.96875 16.160156 103.382812 16.339844 C 103.855469 15.988281 104.269531 15.578125 104.617188 15.101562 C 104.78125 14.886719 104.421875 14.613281 104.242188 14.8125 C 103.5625 15.683594 102.699219 16.289062 101.648438 16.628906 C 101.425781 16.671875 101.203125 16.722656 100.980469 16.773438 C 100.585938 16.859375 100.753906 17.464844 101.148438 17.375 C 103.488281 16.886719 106.007812 16.433594 108.316406 17.289062 C 109.445312 17.722656 110.238281 18.570312 110.996094 19.472656 C 111.171875 19.683594 111.546875 19.402344 111.382812 19.179688 C 110.65625 18.183594 109.804688 17.34375 108.664062 16.851562 C 110.40625 16.988281 112.214844 17.253906 113.371094 18.699219 C 113.960938 19.4375 114.3125 20.277344 114.421875 21.214844 C 114.503906 21.785156 114.441406 22.359375 114.523438 22.929688 C 114.691406 24.191406 115.273438 25.355469 116.347656 26.082031 C 116.898438 26.457031 117.503906 26.683594 118.164062 26.75 C 118.285156 26.75 118.371094 26.691406 118.417969 26.582031 C 118.460938 26.472656 118.445312 26.371094 118.359375 26.285156 C 116.886719 24.890625 116.980469 22.648438 116.070312 20.949219 C 117.085938 22.054688 118.460938 22.789062 119.90625 23.175781 C 120.195312 23.234375 120.460938 23.351562 120.703125 23.523438 C 120.828125 23.636719 120.953125 23.640625 121.085938 23.539062 C 121.21875 23.4375 121.246094 23.3125 121.164062 23.167969 C 120.652344 22.039062 119.890625 21.109375 118.882812 20.386719 C 117.503906 19.375 115.785156 19.15625 114.238281 18.511719 C 113.917969 18.207031 113.578125 17.929688 113.21875 17.675781 C 116.550781 18.523438 119.800781 19.699219 123.199219 20.292969 C 123.703125 20.421875 124.125 20.6875 124.464844 21.082031 C 126.386719 23.546875 127.375 27.347656 130.828125 28.113281 C 130.882812 28.125 130.933594 28.125 130.984375 28.113281 C 131.035156 28.097656 131.082031 28.070312 131.117188 28.035156 C 131.15625 27.996094 131.179688 27.953125 131.195312 27.902344 C 131.210938 27.851562 131.210938 27.800781 131.195312 27.746094 C 130.636719 25.691406 129.242188 23.773438 127.324219 22.785156 C 126.726562 22.523438 126.164062 22.203125 125.632812 21.820312 C 125.347656 21.367188 125.03125 20.929688 124.683594 20.515625 C 126.953125 20.835938 129.300781 20.617188 131.492188 21.386719 C 132.277344 21.792969 132.894531 22.496094 133.382812 23.234375 C 133.902344 24.027344 134.207031 24.945312 134.96875 25.558594 C 135.359375 25.871094 135.796875 26.082031 136.285156 26.195312 C 136.769531 26.308594 137.257812 26.3125 137.746094 26.203125 C 138.476562 25.988281 136.890625 24.203125 136.617188 23.90625 C 135.785156 23.015625 134.824219 22.285156 133.742188 21.714844 C 136.003906 21.910156 138.328125 22.085938 140.429688 23.015625 C 139.195312 23.425781 137.820312 23.058594 136.601562 22.726562 C 136.53125 22.710938 136.460938 22.71875 136.398438 22.757812 C 136.335938 22.796875 136.292969 22.847656 136.273438 22.917969 C 136.253906 22.992188 136.261719 23.058594 136.296875 23.121094 C 136.332031 23.1875 136.386719 23.230469 136.457031 23.25 C 137.882812 23.785156 140.035156 24.289062 141.308594 23.207031 C 141.382812 23.132812 141.414062 23.046875 141.398438 22.941406 C 141.386719 22.839844 141.335938 22.761719 141.246094 22.710938 C 140.019531 22.132812 138.738281 21.730469 137.398438 21.507812 C 135.398438 21.140625 133.320312 21.277344 131.363281 20.679688 C 134.582031 20.4375 137.691406 19.730469 140.695312 18.558594 C 141.964844 18.664062 143.175781 18.980469 144.332031 19.503906 C 144.609375 19.597656 144.742188 19.203125 144.519531 19.054688 C 143.699219 18.5625 142.75 18.296875 141.8125 18.105469 C 143.03125 17.59375 144.230469 17.027344 145.414062 16.441406 C 146.851562 16.097656 148.402344 15.992188 149.796875 16.53125 C 151.394531 17.191406 152.867188 18.167969 154.550781 18.617188 C 155.507812 18.90625 156.523438 18.804688 157.492188 18.617188 C 157.757812 18.570312 157.769531 18.246094 157.632812 18.078125 C 157.046875 17.359375 156.308594 16.847656 155.425781 16.550781 C 156.585938 16.191406 157.390625 15.285156 157.863281 14.191406 C 157.886719 14.148438 157.898438 14.101562 157.898438 14.054688 C 157.898438 14.003906 157.882812 13.957031 157.859375 13.914062 C 157.835938 13.871094 157.800781 13.835938 157.757812 13.8125 C 157.714844 13.785156 157.667969 13.773438 157.617188 13.769531 C 155.21875 13.492188 153.371094 14.519531 152.042969 16.484375 C 151.300781 16.621094 150.679688 16.246094 150.023438 15.972656 C 149.089844 15.621094 148.125 15.492188 147.132812 15.585938 C 150.640625 13.800781 154.21875 12.066406 158.09375 11.230469 C 160.082031 11.121094 161.730469 12.335938 163.308594 13.367188 C 164.640625 14.328125 166.128906 14.785156 167.769531 14.746094 C 167.976562 14.742188 168.175781 14.484375 168.03125 14.296875 C 167.488281 13.585938 166.867188 12.90625 166.101562 12.433594 C 164.714844 11.460938 162.972656 12.007812 161.441406 11.539062 C 160.949219 11.265625 160.429688 11.050781 159.890625 10.894531 C 162.535156 10.511719 167.753906 10.167969 170.148438 11.230469 C 170.742188 12.085938 171.074219 13.085938 171.582031 13.988281 C 172.117188 14.96875 172.765625 15.910156 173.609375 16.652344 C 173.878906 16.898438 175.613281 18.300781 175.546875 17.332031 C 175.167969 16.1875 174.789062 15.039062 174.03125 14.074219 C 173.683594 13.628906 173.265625 13.261719 172.777344 12.972656 C 172.355469 12.707031 171.851562 12.578125 171.527344 12.179688 C 171.265625 11.859375 171.054688 11.496094 170.820312 11.15625 C 172.132812 11.414062 173.417969 11.769531 174.671875 12.230469 C 175.628906 12.660156 176.492188 13.328125 177.328125 13.941406 C 178.929688 15.203125 180.808594 16.296875 182.925781 16.160156 C 183.058594 16.15625 183.148438 16.09375 183.199219 15.972656 C 183.25 15.851562 183.230469 15.742188 183.140625 15.648438 C 182.246094 14.664062 181.300781 13.671875 180.121094 13.023438 C 179.75 12.820312 179.363281 12.65625 178.960938 12.523438 C 181.796875 12.3125 185.054688 11.472656 186.515625 8.816406 C 187.03125 7.851562 187.367188 6.832031 187.527344 5.75 C 187.539062 5.691406 187.527344 5.636719 187.5 5.582031 C 187.425781 4.851562 186 6.121094 185.738281 6.304688 C 183.980469 7.585938 183.46875 9.886719 181.824219 11.253906 Z M 167.921875 5.378906 C 168.203125 4.96875 168.535156 4.609375 168.925781 4.296875 C 169.117188 5.949219 168.320312 6.957031 166.863281 7.644531 C 167.191406 6.878906 167.4375 6.070312 167.921875 5.378906 Z M 141.308594 13.992188 C 141.777344 13.300781 142.390625 12.785156 143.148438 12.441406 C 142.960938 13.933594 141.808594 15.175781 140.367188 15.582031 C 140.648438 15.03125 140.964844 14.503906 141.308594 13.992188 Z M 138.78125 11.203125 C 138.929688 10.472656 139.148438 9.765625 139.449219 9.082031 C 140.277344 11.339844 140.167969 11.828125 138.738281 13.695312 C 138.601562 12.863281 138.617188 12.03125 138.78125 11.203125 Z M 129.523438 16.050781 C 130.53125 15.449219 131.621094 15.167969 132.796875 15.199219 C 131.949219 17.019531 129.90625 16.988281 128.175781 16.820312 C 128.640625 16.578125 129.085938 16.296875 129.523438 16.050781 Z M 124.851562 13.425781 C 124.921875 12.375 125.375 11.472656 126.03125 10.691406 C 126.199219 11.558594 126.175781 12.421875 125.964844 13.285156 C 125.757812 14.144531 125.375 14.921875 124.828125 15.617188 C 124.875 14.890625 124.804688 14.144531 124.851562 13.425781 Z M 116.46875 11.882812 C 116.679688 11.949219 116.886719 12.027344 117.089844 12.121094 C 115.289062 12.089844 113.554688 12.398438 111.878906 13.050781 C 112.984375 11.710938 114.855469 11.332031 116.46875 11.882812 Z M 112.542969 10.109375 C 112.78125 8.398438 112.820312 6.296875 114.363281 5.183594 C 114.398438 7.386719 113.582031 9.585938 112.289062 11.351562 C 112.402344 10.945312 112.488281 10.53125 112.542969 10.109375 Z M 108.453125 10.570312 C 108.441406 10.050781 108.554688 9.558594 108.796875 9.097656 C 109.257812 10.265625 109.554688 11.546875 109.214844 12.800781 C 108.964844 12.042969 108.460938 11.398438 108.453125 10.570312 Z M 118.105469 26.199219 L 118.097656 26.195312 C 118.105469 26.195312 118.121094 26.199219 118.140625 26.203125 C 118.140625 26.203125 118.136719 26.203125 118.136719 26.203125 C 118.125 26.199219 118.117188 26.199219 118.105469 26.195312 Z M 118.164062 26.207031 Z M 116.664062 24.457031 C 116.847656 25.003906 117.097656 25.523438 117.40625 26.015625 C 116.09375 25.546875 115.246094 24.289062 115.070312 22.90625 C 114.972656 21.796875 115.042969 20.652344 114.550781 19.617188 C 115.398438 20.609375 115.957031 21.742188 116.234375 23.015625 C 116.347656 23.503906 116.488281 23.984375 116.664062 24.457031 Z M 119.59375 21.808594 C 119.832031 22.074219 120.042969 22.359375 120.230469 22.660156 C 118.285156 22.179688 116.9375 21.148438 115.707031 19.613281 C 117.171875 20.019531 118.582031 20.644531 119.59375 21.808594 Z M 126.71875 23.160156 C 128.496094 23.96875 129.808594 25.582031 130.449219 27.394531 C 128.441406 26.6875 127.308594 24.722656 126.320312 22.96875 C 126.453125 23.035156 126.589844 23.097656 126.71875 23.160156 Z M 135.941406 24.019531 C 136.4375 24.511719 136.945312 25.074219 137.265625 25.707031 C 134.714844 25.867188 134.574219 23.53125 133.199219 22.070312 C 134.222656 22.570312 135.136719 23.21875 135.941406 24.019531 Z M 154.75 18.027344 C 153.917969 17.785156 153.117188 17.472656 152.347656 17.078125 C 154.019531 16.820312 155.480469 16.882812 156.761719 18.097656 C 156.085938 18.230469 155.414062 18.207031 154.75 18.027344 Z M 153.578125 15.613281 C 154.058594 15.152344 154.613281 14.8125 155.242188 14.585938 C 155.867188 14.359375 156.515625 14.273438 157.179688 14.320312 C 156.34375 16.117188 154.617188 16.28125 152.863281 16.378906 C 153.085938 16.109375 153.324219 15.855469 153.578125 15.613281 Z M 158.722656 3.96875 C 159.484375 7.386719 157.886719 8.28125 155.382812 10.035156 C 156.574219 8.074219 156.972656 5.5625 158.722656 3.96875 Z M 162.839844 12.382812 C 164.667969 12.277344 165.925781 12.722656 167.117188 14.144531 C 165.507812 14.105469 164.109375 13.292969 162.839844 12.382812 Z M 171.996094 13.226562 C 173.484375 13.878906 174.28125 15.347656 174.769531 16.820312 C 173.367188 15.957031 172.464844 14.550781 171.726562 13.089844 C 171.816406 13.136719 171.90625 13.179688 171.996094 13.226562 Z M 181.140625 14.488281 C 181.523438 14.824219 181.878906 15.1875 182.230469 15.554688 C 179.902344 15.496094 178.136719 13.789062 176.304688 12.566406 C 178.054688 12.792969 179.832031 13.242188 181.140625 14.488281 Z M 184.671875 8.285156 C 185.277344 7.410156 186.027344 6.691406 186.933594 6.128906 C 186.441406 8.492188 185.097656 10.4375 182.710938 11.199219 C 183.535156 10.351562 184.007812 9.25 184.671875 8.285156 Z M 184.671875 8.285156 " fill-opacity="1" fill-rule="nonzero"/></g><path fill="#000000" d="M 178.714844 9.390625 C 179.289062 9.644531 179.347656 8.65625 178.75 8.839844 C 178.636719 8.890625 178.574219 8.980469 178.5625 9.105469 C 178.554688 9.230469 178.605469 9.324219 178.714844 9.390625 Z M 178.714844 9.390625 " fill-opacity="1" fill-rule="nonzero"/><path fill="#000000" d="M 103.941406 19.5625 C 103.761719 19.460938 103.605469 19.492188 103.480469 19.65625 C 103.351562 19.820312 103.363281 19.976562 103.503906 20.125 C 103.894531 20.492188 104.394531 19.84375 103.941406 19.5625 Z M 103.941406 19.5625 " fill-opacity="1" fill-rule="nonzero"/></svg>