<?xml version="1.0" encoding="iso-8859-1"?>
<!-- Generator: Adobe Illustrator 19.0.0, SVG Export Plug-In . SVG Version: 6.00 Build 0)  -->
<svg version="1.1" id="Capa_1" xmlns="http://www.w3.org/2000/svg" xmlns:xlink="http://www.w3.org/1999/xlink" x="0px" y="0px"
	 viewBox="0 0 410.214 410.214" style="enable-background:new 0 0 410.214 410.214;" xml:space="preserve">
<g>
	<g>
		<path d="M325.468,169.436c-0.701-2.606-2.365-4.787-4.695-6.129l-19.487-11.249c-4.813-2.78-10.998-1.131-13.783,3.692
			l-11.249,19.487c-1.347,2.33-1.705,5.048-1.003,7.654c0.701,2.606,2.365,4.782,4.695,6.129l19.492,11.254
			c1.582,0.917,3.313,1.352,5.023,1.352c3.492,0,6.891-1.812,8.755-5.043l11.249-19.492
			C325.811,174.761,326.164,172.042,325.468,169.436z M304.558,191.411l-19.43-11.044l11.039-19.435l19.379,11.141L304.558,191.411z
			"/>
	</g>
</g>
<g>
	<g>
		<path d="M330.803,285.588c-0.696-2.611-2.365-4.787-4.695-6.134l-19.487-11.249c-2.33-1.341-5.048-1.7-7.654-1.003
			c-2.606,0.701-4.782,2.365-6.129,4.695l-11.249,19.492c-2.78,4.813-1.126,10.993,3.692,13.783l19.492,11.254
			c1.582,0.911,3.313,1.347,5.023,1.347c3.492,0,6.892-1.812,8.755-5.043l11.254-19.487
			C331.146,290.913,331.504,288.195,330.803,285.588z M309.888,307.553l-19.43-11.044l11.044-19.43l19.359,11.177L309.888,307.553z"
			/>
	</g>
</g>
<g>
	<g>
		<path d="M380.708,342.917l-11.244-19.482c-2.78-4.818-8.96-6.467-13.783-3.697l-19.492,11.254
			c-4.818,2.78-6.472,8.965-3.692,13.778l11.254,19.492c1.869,3.231,5.263,5.038,8.755,5.038c1.705,0,3.441-0.435,5.023-1.347
			l19.487-11.254c2.33-1.341,3.999-3.523,4.695-6.129C382.407,347.965,382.054,345.247,380.708,342.917z M352.619,359.147
			l-11.305-19.282l19.359-11.177l11.228,19.149L352.619,359.147z"/>
	</g>
</g>
<g>
	<g>
		<path d="M245.888,51.886h-12.493c-2.826,0-5.12,2.294-5.12,5.12s2.294,5.12,5.12,5.12h12.493c2.826,0,5.12-2.294,5.12-5.12
			S248.714,51.886,245.888,51.886z"/>
	</g>
</g>
<g>
	<g>
		<path d="M266.419,18.857c-2.826,0-5.12,2.294-5.12,5.12V36.47c0,2.826,2.294,5.12,5.12,5.12s5.12-2.294,5.12-5.12V23.977
			C271.539,21.151,269.245,18.857,266.419,18.857z"/>
	</g>
</g>
<g>
	<g>
		<path d="M255.524,67.901c-2.002-2.002-5.243-2.002-7.24,0l-8.837,8.837c-2.002,2.002-2.002,5.238,0,7.24
			c0.998,0.998,2.309,1.5,3.62,1.5s2.621-0.502,3.62-1.5l8.837-8.837C257.525,73.139,257.525,69.903,255.524,67.901z"/>
	</g>
</g>
<g>
	<g>
		<path d="M293.396,30.029c-2.002-2.002-5.238-2.002-7.24,0l-8.837,8.837c-2.002,2.002-2.002,5.238,0,7.24
			c0.998,0.998,2.309,1.5,3.62,1.5s2.621-0.502,3.62-1.5l8.837-8.837C295.398,35.267,295.398,32.031,293.396,30.029z"/>
	</g>
</g>
<g>
	<g>
		<path d="M255.524,38.866l-8.837-8.837c-2.002-2.002-5.238-2.002-7.24,0c-2.002,2.002-2.002,5.238,0,7.24l8.837,8.837
			c0.998,0.998,2.309,1.5,3.62,1.5s2.621-0.502,3.62-1.5C257.525,44.104,257.525,40.868,255.524,38.866z"/>
	</g>
</g>
<g>
	<g>
		<path d="M398.72,57.974c-0.287-2.591-2.478-4.557-5.089-4.557h-28.145l6.436-47.304c0.384-2.801-1.582-5.381-4.383-5.76
			c-2.806-0.399-5.381,1.582-5.76,4.383l-6.625,48.681h-33.649c-2.058-29.624-26.757-53.115-56.899-53.115
			c-31.483,0-57.098,25.615-57.098,57.098c0,25.492,18.063,51.85,48.527,54.492c-6.426,85.985-12.984,248.622,24.136,296.049
			c0.973,1.239,2.458,1.961,4.035,1.961h91.167c1.577,0,3.062-0.727,4.035-1.966C429.542,343.885,400.005,69.617,398.72,57.974z
			 M364.093,63.657h24.924c0.799,7.885,2.483,25.457,4.198,48.722c-8.346-2.918-17.557-5.637-33.116-5.637
			c-0.66,0-1.234,0.036-1.874,0.046L364.093,63.657z M353.756,63.652l-5.955,43.756c-9.994,1.137-16.896,3.569-23.598,5.955
			c-8.709,3.103-16.942,6.031-32.466,6.031c-11.976,0-19.436-1.746-25.615-3.702c1.792-24.904,3.604-43.781,4.439-52.04H353.756z
			 M256.824,101.699c-24.54-2.237-39.076-23.619-39.076-44.298c0-25.836,21.023-46.858,46.858-46.858
			c24.494,0,44.626,18.903,46.659,42.88h-45.317c-2.611,0-4.803,1.966-5.089,4.562C260.567,60.652,258.785,77.138,256.824,101.699z
			 M372.797,399.662h-86.016c-31.304-44.431-27.136-187.566-21.381-273.495c6.354,1.838,14.495,3.466,26.342,3.466
			c17.295,0,26.752-3.369,35.901-6.625c5.709-2.033,11.249-3.973,18.734-5.079l-19.18,140.918c-0.384,2.801,1.582,5.381,4.383,5.76
			c0.236,0.031,0.466,0.046,0.696,0.046c2.519,0,4.716-1.864,5.064-4.429l4.941-36.316l1.541,5.161
			c0.768,2.575,2.504,4.705,4.879,5.985c1.495,0.809,3.133,1.219,4.787,1.219c0.968,0,1.94-0.138,2.888-0.425l21.565-6.441
			c5.33-1.592,8.366-7.224,6.774-12.559l-6.446-21.56c-0.768-2.575-2.504-4.7-4.879-5.98c-2.376-1.28-5.105-1.562-7.675-0.794
			l-19.41,5.801l10.516-77.256c1.08-0.031,2.115-0.077,3.272-0.077c15.56,0,23.788,2.934,32.497,6.042l1.408,0.502
			C399.841,209.126,404.423,354.775,372.797,399.662z M347.084,204.769l21.422-6.4l6.502,21.228l-21.376,6.543L347.084,204.769z"/>
	</g>
</g>
<g>
	<g>
		<path d="M130.811,252.145l-8.904-18.109c-1.126-2.294-3.082-4.014-5.509-4.838c-2.427-0.835-5.018-0.655-7.311,0.466
			l-18.109,8.904c-4.736,2.33-6.697,8.079-4.367,12.82l8.904,18.109c1.126,2.289,3.082,4.009,5.509,4.833
			c1.014,0.348,2.063,0.522,3.103,0.522c1.444,0,2.877-0.328,4.209-0.983l18.109-8.904c2.294-1.126,4.009-3.082,4.833-5.509
			S131.937,254.433,130.811,252.145z M104.412,264.381l-8.32-16.917l16.916-8.32l8.32,16.917L104.412,264.381z"/>
	</g>
</g>
<g>
	<g>
		<path d="M120.156,176.963l-14.269-14.269c-3.732-3.727-9.81-3.732-13.542,0L78.08,176.963c-1.807,1.807-2.806,4.209-2.806,6.774
			c0,2.56,0.998,4.966,2.801,6.769l14.269,14.275c1.874,1.864,4.321,2.796,6.774,2.796c2.453,0,4.905-0.932,6.769-2.801
			l14.269-14.269C123.888,186.772,123.888,180.695,120.156,176.963z M99.118,197.069l-13.332-13.333l13.332-13.332l13.333,13.332
			L99.118,197.069z"/>
	</g>
</g>
<g>
	<g>
		<path d="M167.306,145.741l-6.518-19.103c-0.824-2.417-2.545-4.367-4.844-5.499c-2.294-1.126-4.89-1.295-7.311-0.471l-19.098,6.518
			c-2.417,0.824-4.367,2.545-5.499,4.844c-1.126,2.299-1.295,4.895-0.471,7.311l6.518,19.103c0.824,2.417,2.545,4.367,4.844,5.499
			c1.336,0.655,2.775,0.988,4.219,0.988c1.039,0,2.079-0.174,3.092-0.517l19.098-6.518c2.417-0.824,4.367-2.545,5.499-4.844
			C167.961,150.753,168.13,148.152,167.306,145.741z M139.556,154.506l-6.088-17.843l17.843-6.088l6.088,17.843L139.556,154.506z"/>
	</g>
</g>
<g>
	<g>
		<path d="M167.429,199.562l-18.627-7.757c-4.879-2.028-10.491,0.287-12.523,5.161l-7.757,18.632
			c-0.978,2.355-0.983,4.956-0.005,7.327c0.973,2.371,2.811,4.214,5.166,5.192l18.627,7.757c1.198,0.497,2.447,0.737,3.671,0.737
			c3.753,0,7.322-2.222,8.852-5.893l7.757-18.632C174.617,207.206,172.298,201.59,167.429,199.562z M155.637,226.161l-17.403-7.25
			l7.245-17.398l17.403,7.25L155.637,226.161z"/>
	</g>
</g>
<g>
	<g>
		<path d="M200.811,196.029c-16.881-80.092-11.971-135.398-11.919-135.951c0.128-1.434-0.348-2.857-1.321-3.922
			c-0.968-1.065-2.345-1.674-3.784-1.674h-68.035C114.37,24.218,89.385,0,58.788,0C27.305,0,1.689,25.615,1.689,57.098
			c0,26.793,19.922,54.6,53.284,54.758h2.345c-1.423,22.456-4.68,51.19-11.633,84.168c-6.221,29.558-2.36,54.451,11.494,73.984
			c18.58,26.199,49.434,34.744,60.948,37.099v92.867H86.825c-2.826,0-5.12,2.294-5.12,5.12c0,2.826,2.294,5.12,5.12,5.12h72.852
			c2.826,0,5.12-2.294,5.12-5.12c0-2.826-2.294-5.12-5.12-5.12h-31.304v-92.867c11.515-2.355,42.368-10.9,60.948-37.099
			C203.177,250.475,207.037,225.587,200.811,196.029z M178.304,64.722c-0.353,6.666-0.712,19.087-0.015,36.065
			c-7.439-3.379-15.601-6.564-29.578-6.564c-15.339,0-23.69,3.845-31.764,7.567c-7.398,3.41-14.387,6.63-27.489,6.63
			c-9.964,0-16.225-1.859-21.402-3.958c0.911-18.903,0.517-32.594,0.133-39.741H178.304z M54.999,101.627v-0.005
			c-26.962-0.128-43.069-22.738-43.069-44.518c0-25.836,21.023-46.858,46.858-46.858c24.955,0,45.353,19.625,46.725,44.242H62.704
			c-1.444,0-2.816,0.609-3.789,1.674c-0.968,1.065-1.444,2.493-1.311,3.927c0.026,0.287,1.388,15.56,0.261,41.539H54.999z
			 M181.012,264.018c-18.581,26.266-52.603,32.768-57.769,33.618c-5.166-0.84-39.055-7.255-57.707-33.551
			c-12.134-17.106-15.437-39.291-9.82-65.94c6.835-32.435,10.163-60.585,11.704-82.975c5.448,1.905,12.339,3.497,22.042,3.497
			c15.35,0,23.701-3.845,31.775-7.573c7.398-3.41,14.382-6.625,27.479-6.625c13.123,0,20.111,3.22,27.51,6.635l2.662,1.219
			c1.439,22.81,4.777,52.019,11.899,85.816C196.393,224.753,193.106,246.917,181.012,264.018z"/>
	</g>
</g>
<g>
	<g>
		<path d="M40.069,51.584H27.576c-2.826,0-5.12,2.294-5.12,5.12s2.294,5.12,5.12,5.12h12.493c2.831,0,5.12-2.294,5.12-5.12
			S42.895,51.584,40.069,51.584z"/>
	</g>
</g>
<g>
	<g>
		<path d="M60.605,18.555c-2.826,0-5.12,2.294-5.12,5.12v12.493c0,2.826,2.294,5.12,5.12,5.12c2.826,0,5.12-2.294,5.12-5.12V23.675
			C65.725,20.849,63.431,18.555,60.605,18.555z"/>
	</g>
</g>
<g>
	<g>
		<path d="M49.705,67.604c-2.002-2.002-5.243-2.002-7.24,0l-8.832,8.832c-2.002,2.002-2.002,5.238,0,7.24
			c0.998,0.998,2.309,1.5,3.62,1.5s2.621-0.502,3.62-1.5l8.832-8.832C51.707,72.842,51.707,69.606,49.705,67.604z"/>
	</g>
</g>
<g>
	<g>
		<path d="M87.577,29.732c-2.002-2.002-5.238-2.002-7.24,0l-8.837,8.832c-2.002,1.997-2.002,5.238,0,7.24
			c1.004,0.998,2.314,1.5,3.62,1.5c1.311,0,2.621-0.502,3.62-1.5l8.837-8.832C89.579,34.975,89.579,31.734,87.577,29.732z"/>
	</g>
</g>
<g>
	<g>
		<path d="M49.705,38.564l-8.832-8.837c-2.002-2.002-5.238-2.002-7.24,0c-2.002,1.997-2.002,5.238,0,7.24l8.832,8.837
			c0.998,0.998,2.309,1.5,3.62,1.5s2.621-0.502,3.62-1.5C51.707,43.807,51.707,40.566,49.705,38.564z"/>
	</g>
</g>
<g>
</g>
<g>
</g>
<g>
</g>
<g>
</g>
<g>
</g>
<g>
</g>
<g>
</g>
<g>
</g>
<g>
</g>
<g>
</g>
<g>
</g>
<g>
</g>
<g>
</g>
<g>
</g>
<g>
</g>
</svg>
