<svg id="Layer_1" enable-background="new 0 0 48 48" height="512" viewBox="0 0 48 48" width="512" xmlns="http://www.w3.org/2000/svg"><g><g><path d="m31.4 47.5h-29.7c-.6 0-1-.4-1-1v-45c0-.6.4-1 1-1h29.7c.6 0 1 .4 1 1v45c0 .6-.4 1-1 1zm-28.7-2h27.7v-43h-27.7z" fill="rgb(0,0,0)"/></g><g><path d="m46.3 47.5h-14.9c-.6 0-1-.4-1-1v-32.3c0-.6.4-1 1-1h14.9c.6 0 1 .4 1 1v32.3c0 .6-.5 1-1 1zm-13.9-2h12.9v-30.3h-12.9z" fill="rgb(0,0,0)"/></g><g><g><path d="m8.1 6.5h2v5h-2z" fill="rgb(0,0,0)"/></g><g><path d="m15.6 6.5h2v5h-2z" fill="rgb(0,0,0)"/></g><g><path d="m23 6.5h2v5h-2z" fill="rgb(0,0,0)"/></g></g><g><g><path d="m35.1 19.2h2v5h-2z" fill="rgb(0,0,0)"/></g><g><path d="m40.6 19.2h2v5h-2z" fill="rgb(0,0,0)"/></g></g><g><g><path d="m35.1 30.2h2v5h-2z" fill="rgb(0,0,0)"/></g><g><path d="m40.6 30.2h2v5h-2z" fill="rgb(0,0,0)"/></g></g><g><g><path d="m37.9 41.2h2v5h-2z" fill="rgb(0,0,0)"/></g></g><g><g><path d="m8.1 17.5h2v5h-2z" fill="rgb(0,0,0)"/></g><g><path d="m15.6 17.5h2v5h-2z" fill="rgb(0,0,0)"/></g><g><path d="m23 17.5h2v5h-2z" fill="rgb(0,0,0)"/></g></g><g><g><path d="m8.1 28.5h2v5h-2z" fill="rgb(0,0,0)"/></g><g><path d="m15.6 28.5h2v5h-2z" fill="rgb(0,0,0)"/></g><g><path d="m23 28.5h2v5h-2z" fill="rgb(0,0,0)"/></g></g><g><g><path d="m21.8 47.5h-10.5l-.3-.4c-1.5-1.9-2.3-3.7-2.3-5.3 0-3 2.3-5.5 5-5.5 1 0 2 .3 2.8.9.8-.6 1.8-.9 2.8-.9 2.8 0 5 2.5 5 5.5 0 1.6-.8 3.4-2.3 5.3zm-9.5-2h8.5c1-1.4 1.5-2.6 1.5-3.7 0-1.9-1.4-3.5-3-3.5-.8 0-1.5.3-2.1 1l-.7.8-.7-.8c-.6-.6-1.3-1-2.1-1-1.7 0-3 1.6-3 3.5.1 1.1.6 2.3 1.6 3.7z" fill="rgb(0,0,0)"/></g></g><g><path d="m15.6 38.6h2v7.9h-2z" fill="rgb(0,0,0)"/></g><g><g><g><path d="m38.9 10.4c-.2 0-.4-.1-.6-.2-.5-.3-4.4-3.1-4.4-6.1 0-2 1.5-3.6 3.3-3.6.6 0 1.1.2 1.6.5.5-.3 1.1-.5 1.6-.5 1.8 0 3.3 1.6 3.3 3.6 0 3-4 5.8-4.4 6.1 0 .2-.2.2-.4.2zm-1.7-7.9c-.7 0-1.3.7-1.3 1.6 0 1.4 1.8 3.2 3 4.1 1.3-1.1 3-2.8 3-4.1 0-.9-.6-1.6-1.3-1.6-.3 0-.6.1-.9.4-.2.2-.5.3-.7.3-.3 0-.5-.1-.7-.3-.4-.3-.7-.4-1.1-.4z" fill="rgb(0,0,0)"/></g></g></g></g></svg>