<?xml version="1.0" encoding="UTF-8"?>
<svg xmlns="http://www.w3.org/2000/svg" id="Line_Expand" data-name="Line Expand" viewBox="0 0 64 64" width="512" height="512"><path d="M18,7H12a1,1,0,0,0-1,1v6a1,1,0,0,0,1,1h6a1,1,0,0,0,1-1V8A1,1,0,0,0,18,7Zm-1,6H13V9h4Z"/><path d="M28,7H22a1,1,0,0,0-1,1v6a1,1,0,0,0,1,1h6a1,1,0,0,0,1-1V8A1,1,0,0,0,28,7Zm-1,6H23V9h4Z"/><path d="M38,7H32a1,1,0,0,0-1,1v6a1,1,0,0,0,1,1h6a1,1,0,0,0,1-1V8A1,1,0,0,0,38,7Zm-1,6H33V9h4Z"/><path d="M18,17H12a1,1,0,0,0-1,1v6a1,1,0,0,0,1,1h6a1,1,0,0,0,1-1V18A1,1,0,0,0,18,17Zm-1,6H13V19h4Z"/><path d="M28,17H22a1,1,0,0,0-1,1v6a1,1,0,0,0,1,1h6a1,1,0,0,0,1-1V18A1,1,0,0,0,28,17Zm-1,6H23V19h4Z"/><path d="M38,17H32a1,1,0,0,0-1,1v6a1,1,0,0,0,1,1h6a1,1,0,0,0,1-1V18A1,1,0,0,0,38,17Zm-1,6H33V19h4Z"/><path d="M18,27H12a1,1,0,0,0-1,1v6a1,1,0,0,0,1,1h6a1,1,0,0,0,1-1V28A1,1,0,0,0,18,27Zm-1,6H13V29h4Z"/><path d="M28,27H22a1,1,0,0,0-1,1v6a1,1,0,0,0,1,1h6a1,1,0,0,0,1-1V28A1,1,0,0,0,28,27Zm-1,6H23V29h4Z"/><path d="M38,27H32a1,1,0,0,0-1,1v6a1,1,0,0,0,1,1h6a1,1,0,0,0,1-1V28A1,1,0,0,0,38,27Zm-1,6H33V29h4Z"/><path d="M23,43h4a1,1,0,0,0,0-2H23a1,1,0,0,0,0,2Z"/><path d="M35,50h3a1,1,0,0,0,0-2H35a1,1,0,0,0,0,2Z"/><path d="M15,48H12a1,1,0,0,0,0,2h3a1,1,0,0,0,0-2Z"/><path d="M52,12H50a1,1,0,0,0,0,2h2a1,1,0,0,0,0-2Z"/><path d="M52,16H50a1,1,0,0,0,0,2h2a1,1,0,0,0,0-2Z"/><path d="M60,55H58.22l1.6-8H60a1,1,0,0,0,0-2H55V42.33l4.292-4.292A4.122,4.122,0,0,0,54,31.755a4.123,4.123,0,0,0-5.293,6.283L53,42.33V45H48a1,1,0,0,0,0,2h.18l1.6,8H43V19h2v2a1,1,0,0,0,1,1H56a1,1,0,0,0,1-1V9a1,1,0,0,0-1-1H46a1,1,0,0,0-1,1v2H43V4a1,1,0,0,0-1-1H8A1,1,0,0,0,7,4V55H4a1,1,0,0,0-1,1v4a1,1,0,0,0,1,1H60a1,1,0,0,0,1-1V56A1,1,0,0,0,60,55ZM47,10h8V20H47Zm-4,3h2v4H43Zm7.121,23.623a2.122,2.122,0,0,1,3-3l.169.17a1,1,0,0,0,1.415,0l.17-.17a2.122,2.122,0,1,1,3,3L54,40.5ZM57.78,47l-.4,2H50.62l-.4-2Zm-.8,4-.8,4H51.82l-.8-4ZM9,5H41V37H9ZM9,39H41V55H32V46a1,1,0,0,0-1-1H19a1,1,0,0,0-1,1v9H9Zm21,8v8H26V47Zm-6,0v8H20V47ZM59,59H5V57H59Z"/></svg>
