<svg height="512" viewBox="0 0 64 64" width="512" xmlns="http://www.w3.org/2000/svg"><g id="wedding_church" data-name="wedding church"><path d="m59.91 62.75h-55.82a.76.76 0 0 1 -.75-.75v-1.36a2.48 2.48 0 0 1 2.48-2.47h.18v-18.81h-1.91a.75.75 0 0 1 -.65-.36.74.74 0 0 1 0-.76l3.15-5.08a.75.75 0 0 1 .64-.35h12.58v-9.28l-2 1.5a2.14 2.14 0 0 1 -3.08-.45 2.18 2.18 0 0 1 .41-3.11l13.26-9.92 2.27-1.7a2.19 2.19 0 0 1 .59-.3v-4.48h-2.26a.75.75 0 1 1 0-1.5h2.27v-1.57a.75.75 0 0 1 1.5 0v1.57h2.39a.75.75 0 0 1 0 1.5h-2.4v4.48a2 2 0 0 1 .56.3l7.73 5.77 7.81 5.85a2.22 2.22 0 0 1 -2.66 3.53l-2-1.5v9.26h12.55a.75.75 0 0 1 .64.35l3.15 5.08a.74.74 0 0 1 0 .76.75.75 0 0 1 -.65.38h-1.89v18.84h.18a2.48 2.48 0 0 1 2.48 2.47v1.36a.76.76 0 0 1 -.75.75zm-55.07-1.5h54.32v-.61a1 1 0 0 0 -1-1h-52.34a1 1 0 0 0 -1 1zm48.81-3.08h2.85v-18.81h-12.31v18.81h2.81v-8.91a.76.76 0 0 1 .75-.75h5.15a.76.76 0 0 1 .75.75zm-5.11 0h3.61v-8.17h-3.61zm-9.67 0h3.82v-35.76l-10.69-7.99-10.69 8v35.75h3.83v-11.89a6.87 6.87 0 0 1 13.73 0zm-6.11 0h4.61v-11.89a5.38 5.38 0 0 0 -4.61-5.28zm-6.12 0h4.62v-17.17a5.38 5.38 0 0 0 -4.62 5.31zm-9.68 0h2.85v-18.81h-12.31v18.81h2.85v-8.91a.76.76 0 0 1 .75-.75h5.11a.76.76 0 0 1 .75.75zm-5.11 0h3.61v-8.17h-3.61zm32.34-20.31h14.37l-2.23-3.57h-12.14zm-38.75 0h14.37v-3.57h-12.14zm26.5-26.93a.79.79 0 0 0 -.39.13l-2.25 1.69-13.3 9.92a.68.68 0 0 0 -.12 1 .67.67 0 0 0 1 .16l3.17-2.38 11.44-8.56a.81.81 0 0 1 .33-.14.78.78 0 0 1 .45.07l.12.07 11.44 8.56 3.17 2.38a.73.73 0 0 0 1-1.17c-2-1.52-4.91-3.68-7.8-5.83l-7.72-5.78a.7.7 0 0 0 -.35-.12zm.13 23.31a.79.79 0 0 1 -.53-.22l-3.78-3.78c-1.94-1.94-1.76-3.93-1-5a3.26 3.26 0 0 1 4.07-1 5 5 0 0 1 1.26.76 5.56 5.56 0 0 1 1.26-.76 3.24 3.24 0 0 1 4.07 1c.75 1.11.93 3.1-1 5l-3.82 3.76a.75.75 0 0 1 -.53.24zm-2.74-8.89a1.57 1.57 0 0 0 -1.33.65c-.42.63-.46 1.84.84 3.14l3.25 3.25 3.25-3.25c1.3-1.3 1.27-2.51.84-3.15a1.78 1.78 0 0 0 -2.25-.48 4 4 0 0 0 -1.31.91.75.75 0 0 1 -1.06 0 3.91 3.91 0 0 0 -1.3-.91 2.42 2.42 0 0 0 -.93-.16z" fill="rgb(0,0,0)"/></g></svg>