<svg id="Capa_1" enable-background="new 0 0 507.244 507.244" height="512" viewBox="0 0 507.244 507.244" width="512" xmlns="http://www.w3.org/2000/svg"><g id="XMLID_951_"><path id="XMLID_966_" d="m196.471 187.019 58.911 53.941 58.936-54.066c9.668-8.87 15.148-20.979 15.431-34.097.282-13.118-4.672-25.451-13.949-34.729-9.002-9.003-20.972-13.96-33.703-13.96-9.707 0-18.972 2.882-26.816 8.242-7.804-5.281-17-8.12-26.631-8.12-12.727 0-24.692 4.956-33.692 13.956-9.281 9.281-14.232 21.619-13.943 34.74.286 13.123 5.776 25.23 15.456 34.093zm19.699-47.62c3.333-3.333 7.765-5.169 12.478-5.169 4.714 0 9.146 1.836 12.479 5.169l14.182 14.183 14.297-14.301c3.336-3.336 7.772-5.173 12.49-5.173s9.153 1.837 12.488 5.173l.001.001c3.438 3.438 5.274 8.008 5.17 12.869s-2.136 9.349-5.719 12.635l-38.674 35.48-38.632-35.374c-3.585-3.282-5.618-7.767-5.725-12.626-.107-4.86 1.727-9.429 5.165-12.867z"/><path id="XMLID_1051_" d="m352.993 336.098c52.174-65.602 78.629-118.767 78.629-158.098 0-98.149-79.851-178-178-178s-178 79.851-178 178c0 39.331 26.454 92.496 78.629 158.098-50.606 14.997-95.595 43.491-95.595 80.146 0 26.716 21.975 50.708 61.875 67.559 35.795 15.116 83.062 23.441 133.091 23.441s97.296-8.325 133.091-23.441c39.901-16.851 61.876-40.843 61.876-67.559 0-36.655-44.991-65.149-95.596-80.146zm-99.371-306.098c81.607 0 148 66.393 148 148 0 63.646-98.626 175.094-147.952 224.257-14.518-14.571-42.32-43.435-69.915-77.336-51.115-62.798-78.133-113.602-78.133-146.921 0-81.607 66.392-148 148-148zm121.42 426.166c-32.187 13.593-75.308 21.078-121.42 21.078s-89.233-7.485-121.42-21.078c-27.267-11.516-43.546-26.439-43.546-39.922 0-16.812 32.863-41.748 86.56-54.739 35.311 41.324 66.574 71.203 68.061 72.62l10.345 9.853 10.345-9.853c1.488-1.417 32.75-31.296 68.062-72.62 53.698 12.991 86.56 37.926 86.56 54.738 0 13.484-16.28 28.407-43.547 39.923z"/></g></svg>