<?xml version="1.0" encoding="UTF-8" standalone="no"?>
<!-- Created with Inkscape (http://www.inkscape.org/) -->

<svg
   version="1.1"
   id="svg2862"
   xml:space="preserve"
   width="682.66669"
   height="682.66669"
   viewBox="0 0 682.66669 682.66669"
   xmlns="http://www.w3.org/2000/svg"
   xmlns:svg="http://www.w3.org/2000/svg"><defs
     id="defs2866"><clipPath
       clipPathUnits="userSpaceOnUse"
       id="clipPath2876"><path
         d="M 0,512 H 512 V 0 H 0 Z"
         id="path2874" /></clipPath></defs><g
     id="g2868"
     transform="matrix(1.3333333,0,0,-1.3333333,0,682.66667)"><g
       id="g2870"><g
         id="g2872"
         clip-path="url(#clipPath2876)"><g
           id="g2878"
           transform="translate(98.6729,183.8491)"><path
             d="m 0,0 -31.713,-87.128 c -4.814,-13.228 -16.974,-22.326 -31.014,-23.353 -10.338,-0.756 -18.633,-4.379 -26.502,-9.518 -2.94,-1.919 -2.449,-6.365 0.851,-7.565 l 98.696,-35.923 c 3.299,-1.201 6.533,1.888 5.515,5.249 -2.725,8.994 -6.75,17.101 -14.185,24.326 -10.094,9.811 -13.561,24.597 -8.747,37.825 l 32.434,89.111"
             style="fill:none;stroke:#000000;stroke-width:15;stroke-linecap:round;stroke-linejoin:round;stroke-miterlimit:10;stroke-dasharray:none;stroke-opacity:1"
             id="path2880" /></g><g
           id="g2882"
           transform="translate(92.0537,354.4409)"><path
             d="M 0,0 C 10.923,3.794 23.172,3.999 34.887,-0.265 52.779,-6.777 64.935,-22.077 68.27,-39.509"
             style="fill:none;stroke:#000000;stroke-width:15;stroke-linecap:round;stroke-linejoin:round;stroke-miterlimit:10;stroke-dasharray:none;stroke-opacity:1"
             id="path2884" /></g><g
           id="g2886"
           transform="translate(81.0137,331.1069)"><path
             d="m 0,0 c 5.829,-11.147 15.674,-20.22 28.423,-24.834 17.911,-6.485 37.043,-2.547 50.788,8.694 13.742,11.234 32.874,15.172 50.784,8.688 11.777,-4.261 21.069,-12.323 27.012,-22.307"
             style="fill:none;stroke:#000000;stroke-width:15;stroke-linecap:round;stroke-linejoin:round;stroke-miterlimit:10;stroke-dasharray:none;stroke-opacity:1"
             id="path2888" /></g><g
           id="g2890"
           transform="translate(180.2236,404.0703)"><path
             d="m 0,0 -48.471,17.642 c -3.804,1.384 -8.038,-0.355 -9.769,-4.015 l -57.226,-120.951 c -21.141,-44.684 0.715,-97.871 47.167,-114.778 v -0.001 c 46.452,-16.907 97.384,9.788 109.911,57.607 l 33.909,129.438 c 1.025,3.916 -1.099,7.971 -4.904,9.355 l -35.901,13.067"
             style="fill:none;stroke:#000000;stroke-width:15;stroke-linecap:round;stroke-linejoin:round;stroke-miterlimit:10;stroke-dasharray:none;stroke-opacity:1"
             id="path2892" /></g><g
           id="g2894"
           transform="translate(387.9941,176.8735)"><path
             d="m 0,0 32.434,-89.111 c 4.815,-13.229 1.347,-28.014 -8.747,-37.826 -7.434,-7.225 -11.459,-15.331 -14.185,-24.326 -1.018,-3.36 2.217,-6.449 5.516,-5.248 l 98.696,35.922 c 3.299,1.201 3.791,5.646 0.85,7.566 -7.869,5.139 -16.163,8.761 -26.501,9.517 -14.041,1.027 -26.201,10.125 -31.015,23.354 l -7.079,19.45"
             style="fill:none;stroke:#000000;stroke-width:15;stroke-linecap:round;stroke-linejoin:round;stroke-miterlimit:10;stroke-dasharray:none;stroke-opacity:1"
             id="path2896" /></g><g
           id="g2898"
           transform="translate(425.3184,150.9116)"><path
             d="M 0,0 -12.994,35.7"
             style="fill:none;stroke:#000000;stroke-width:15;stroke-linecap:round;stroke-linejoin:round;stroke-miterlimit:10;stroke-dasharray:none;stroke-opacity:1"
             id="path2900" /></g><g
           id="g2902"
           transform="translate(273.9912,301.3164)"><path
             d="m 0,0 c 5.929,9.927 15.181,17.958 26.896,22.222 17.892,6.512 37.038,2.606 50.797,-8.605"
             style="fill:none;stroke:#000000;stroke-width:15;stroke-linecap:round;stroke-linejoin:round;stroke-miterlimit:10;stroke-dasharray:none;stroke-opacity:1"
             id="path2904" /></g><g
           id="g2906"
           transform="translate(280.5332,276.3452)"><path
             d="m 0,0 c 11.63,-4.792 25.004,-5.414 37.736,-0.754 17.889,6.546 30.013,21.859 33.317,39.306 3.306,17.439 15.43,32.754 33.319,39.299 11.761,4.306 24.061,4.103 35.03,0.274"
             style="fill:none;stroke:#000000;stroke-width:15;stroke-linecap:round;stroke-linejoin:round;stroke-miterlimit:10;stroke-dasharray:none;stroke-opacity:1"
             id="path2908" /></g><g
           id="g2910"
           transform="translate(349.1094,179.9038)"><path
             d="M 0,0 C 16.172,-4.469 33.872,-4.158 50.968,2.064 97.42,18.971 119.277,72.158 98.135,116.843 L 40.91,237.793 c -1.732,3.66 -5.966,5.4 -9.77,4.015 L -87.947,198.464 c -3.805,-1.385 -5.93,-5.439 -4.905,-9.356 L -58.943,59.671 c 4.485,-17.122 13.895,-31.533 26.258,-42.207"
             style="fill:none;stroke:#000000;stroke-width:15;stroke-linecap:round;stroke-linejoin:round;stroke-miterlimit:10;stroke-dasharray:none;stroke-opacity:1"
             id="path2912" /></g><g
           id="g2914"
           transform="translate(485.707,259.6382)"><path
             d="M 0,0 10.569,-0.032"
             style="fill:none;stroke:#000000;stroke-width:15;stroke-linecap:round;stroke-linejoin:round;stroke-miterlimit:10;stroke-dasharray:none;stroke-opacity:1"
             id="path2916" /></g><g
           id="g2918"
           transform="translate(481.2031,286.0547)"><path
             d="M 0,0 9.168,5.491"
             style="fill:none;stroke:#000000;stroke-width:15;stroke-linecap:round;stroke-linejoin:round;stroke-miterlimit:10;stroke-dasharray:none;stroke-opacity:1"
             id="path2920" /></g><g
           id="g2922"
           transform="translate(490.1963,227.7026)"><path
             d="M 0,0 -9.138,5.546"
             style="fill:none;stroke:#000000;stroke-width:15;stroke-linecap:round;stroke-linejoin:round;stroke-miterlimit:10;stroke-dasharray:none;stroke-opacity:1"
             id="path2924" /></g><g
           id="g2926"
           transform="translate(26.293,259.6431)"><path
             d="M 0,0 -10.569,-0.049"
             style="fill:none;stroke:#000000;stroke-width:15;stroke-linecap:round;stroke-linejoin:round;stroke-miterlimit:10;stroke-dasharray:none;stroke-opacity:1"
             id="path2928" /></g><g
           id="g2930"
           transform="translate(30.7529,286.0674)"><path
             d="M 0,0 -9.178,5.476"
             style="fill:none;stroke:#000000;stroke-width:15;stroke-linecap:round;stroke-linejoin:round;stroke-miterlimit:10;stroke-dasharray:none;stroke-opacity:1"
             id="path2932" /></g><g
           id="g2934"
           transform="translate(21.8574,227.7002)"><path
             d="M 0,0 9.129,5.562"
             style="fill:none;stroke:#000000;stroke-width:15;stroke-linecap:round;stroke-linejoin:round;stroke-miterlimit:10;stroke-dasharray:none;stroke-opacity:1"
             id="path2936" /></g><g
           id="g2938"
           transform="translate(296.7432,484.4585)"><path
             d="m 0,0 v 0 c -9.982,9.949 -26.139,9.921 -36.088,-0.061 l -4.678,-4.693 -4.693,4.678 c -9.982,9.949 -26.139,9.921 -36.087,-0.061 h -10e-4 c -9.948,-9.982 -9.921,-26.138 0.061,-36.087 l 36.32,-36.199 c 2.497,-2.488 6.539,-2.481 9.027,0.015 l 36.2,36.321 C 10.009,-26.105 9.981,-9.949 0,0 Z"
             style="fill:none;stroke:#000000;stroke-width:15;stroke-linecap:round;stroke-linejoin:round;stroke-miterlimit:10;stroke-dasharray:none;stroke-opacity:1"
             id="path2940" /></g></g></g></g></svg>
